<svg width="1330" height="888" viewBox="0 0 1330 888" fill="none" xmlns="http://www.w3.org/2000/svg">
<g clip-path="url(#clip0_117_1037)">
<rect width="1330" height="888" rx="24" fill="#6772E5"/>
<rect x="884.575" y="-335.225" width="1082.67" height="590.97" rx="64.5572" transform="rotate(-11.6596 884.575 -335.225)" fill="#808AF2"/>
<mask id="mask0_117_1037" style="mask-type:luminance" maskUnits="userSpaceOnUse" x="1044" y="46" width="213" height="115">
<path d="M1256.15 46.8473L1044.3 46.6367L1044.22 160.788L1256.06 160.999L1256.15 46.8473Z" fill="white"/>
</mask>
<g mask="url(#mask0_117_1037)">
<path d="M1069.58 97.6958C1068.78 99.6699 1067.59 101.439 1066.1 102.889C1064.64 104.311 1062.95 105.448 1061.12 106.249C1059.3 107.049 1057.38 107.549 1055.42 107.73C1053 107.948 1050.95 107.78 1049.26 107.224C1047.77 106.732 1046.29 105.82 1044.83 104.489C1044.51 104.196 1044.49 103.679 1044.78 103.348L1050.35 96.9292C1050.65 96.5931 1051.14 96.5833 1051.48 96.8669C1051.92 97.2429 1052.41 97.5634 1052.93 97.8216C1053.73 98.1355 1054.59 98.2363 1055.43 98.1155C1057.08 97.9604 1058.38 97.3358 1059.35 96.2415C1060.31 95.1473 1060.79 93.5924 1060.79 91.5765L1060.81 63.7222C1060.81 63.2993 1061.11 62.947 1061.51 62.9106L1070.05 62.1212C1070.49 62.08 1070.88 62.456 1070.88 62.9344L1070.86 90.8911C1070.89 93.2301 1070.45 95.5493 1069.58 97.6958Z" fill="white"/>
<path d="M1107.73 93.5374C1106.94 95.5348 1105.8 97.3481 1104.36 98.8761C1102.91 100.412 1101.22 101.655 1099.35 102.544C1097.45 103.455 1095.42 104.013 1093.34 104.194C1091.33 104.404 1089.3 104.222 1087.36 103.655C1085.54 103.121 1083.84 102.186 1082.38 100.911C1080.94 99.641 1079.8 98.0253 1079.05 96.1948C1078.24 94.1986 1077.84 92.0402 1077.87 89.8647L1077.89 62.1295C1077.89 61.7068 1078.2 61.3545 1078.59 61.3179L1087.13 60.5257C1087.58 60.4843 1087.96 60.8604 1087.96 61.3389L1087.94 88.6857C1087.94 90.6993 1088.42 92.2266 1089.38 93.2674C1090.34 94.3116 1091.66 94.7501 1093.35 94.5961C1094.11 94.5533 1094.86 94.3484 1095.55 93.9932C1096.24 93.638 1096.86 93.1396 1097.37 92.5269C1098.36 91.3069 1098.86 89.6891 1098.87 87.6732L1098.89 60.1897C1098.89 59.767 1099.19 59.4147 1099.59 59.3781L1108.13 58.586C1108.58 58.5446 1108.96 58.9206 1108.96 59.3991L1108.94 86.991C1108.95 89.238 1108.54 91.4652 1107.73 93.5374Z" fill="white"/>
<path d="M1142.83 91.6699C1142.02 93.468 1140.86 95.0576 1139.43 96.3297C1137.91 97.6715 1136.2 98.7362 1134.36 99.4808C1132.38 100.29 1130.31 100.793 1128.2 100.975C1124.83 101.29 1121.88 101.142 1119.37 100.532C1117.08 99.9738 1114.97 98.8133 1113.21 97.1611C1112.9 96.8704 1112.89 96.3669 1113.17 96.0425L1118.61 89.7011C1118.89 89.374 1119.37 89.3502 1119.7 89.61C1120.7 90.3783 1121.85 90.8912 1123.07 91.1038C1124.78 91.4504 1126.53 91.537 1128.27 91.3606C1132.19 91.0003 1134.15 89.5042 1134.15 86.8723C1134.15 85.7628 1133.89 84.9246 1133.35 84.3579C1132.81 83.7909 1131.87 83.4886 1130.64 83.4378L1128.23 83.2929L1125.7 83.1579C1122.05 82.918 1119.31 81.8776 1117.47 80.0366C1115.59 78.1139 1114.65 75.2626 1114.66 71.4826C1114.63 69.548 1114.97 67.6282 1115.67 65.8446C1116.37 64.0609 1117.41 62.4523 1118.72 61.1205C1121.43 58.2816 1125.07 56.6502 1129.63 56.2264C1132.62 55.9512 1135.24 56.1194 1137.48 56.731C1139.46 57.2663 1141.3 58.2643 1142.86 59.6493C1143.19 59.9358 1143.21 60.452 1142.92 60.7827L1137.84 66.6863C1137.43 67.1583 1136.74 67.171 1136.25 66.8117C1135.48 66.261 1134.61 65.8918 1133.7 65.7356C1132.25 65.5385 1130.79 65.5192 1129.34 65.6783C1127.73 65.829 1126.5 66.3544 1125.65 67.2543C1125.27 67.6281 1124.95 68.0828 1124.74 68.5906C1124.52 69.0984 1124.4 69.6486 1124.39 70.2073C1124.38 70.5765 1124.45 70.9429 1124.59 71.2811C1124.73 71.6193 1124.93 71.921 1125.19 72.1653C1125.84 72.8041 1126.78 73.1483 1128.01 73.1981L1130.25 73.2964L1132.96 73.478C1136.56 73.6802 1139.25 74.6433 1141.01 76.3673C1143.04 78.3167 1144.06 81.4276 1144.05 85.6998C1144.07 87.7633 1143.65 89.8042 1142.83 91.6699Z" fill="white"/>
<path d="M1169.09 62.5428C1168.7 62.5794 1168.4 62.9317 1168.4 63.3544L1168.37 96.1318C1168.37 96.5545 1168.07 96.9068 1167.67 96.9434L1159.13 97.7355C1158.68 97.777 1158.3 97.4008 1158.3 96.9223L1158.33 64.4315C1158.33 63.953 1157.94 63.5769 1157.5 63.6184L1149.09 64.3982C1148.64 64.4395 1148.26 64.0636 1148.26 63.5851L1148.26 55.6045C1148.26 55.1818 1148.57 54.8295 1148.96 54.7929L1177.64 52.133C1178.09 52.0915 1178.47 52.4676 1178.47 52.9461L1178.47 60.9266C1178.47 61.3493 1178.16 61.7017 1177.77 61.7382L1169.09 62.5428Z" fill="white"/>
<path d="M1075.87 154.876C1073.49 157.373 1070.42 158.798 1066.66 159.152L1049.65 160.714C1049.2 160.755 1048.82 160.379 1048.82 159.901L1048.85 117.665C1048.85 117.242 1049.15 116.89 1049.55 116.853L1065.83 115.342C1070.02 114.955 1073.24 115.804 1075.51 117.888C1077.77 119.973 1078.9 122.955 1078.9 126.834C1078.9 129.013 1078.42 130.855 1077.46 132.36C1076.62 133.719 1075.59 134.928 1074.4 135.94C1074.99 136.277 1075.55 136.645 1076.1 137.045C1076.69 137.501 1077.21 138.045 1077.65 138.659C1078.21 139.449 1078.65 140.336 1078.94 141.284C1079.31 142.49 1079.48 143.754 1079.46 145.023C1079.44 149.092 1078.25 152.377 1075.87 154.876ZM1067.95 125.869C1067.37 125.226 1066.45 124.962 1065.19 125.078L1059.61 125.597C1059.22 125.633 1058.91 125.986 1058.91 126.408L1058.91 131.921C1058.91 132.4 1059.29 132.776 1059.74 132.735L1065.18 132.229C1066.45 132.111 1067.37 131.677 1067.94 130.926C1068.51 130.195 1068.82 129.27 1068.81 128.317C1068.82 127.869 1068.75 127.421 1068.61 127.001C1068.46 126.581 1068.24 126.196 1067.95 125.869ZM1068.48 142.72C1067.89 142.033 1066.96 141.75 1065.7 141.87L1059.6 142.434C1059.2 142.471 1058.9 142.823 1058.9 143.246L1058.89 149.312C1058.89 149.791 1059.28 150.167 1059.72 150.126L1065.69 149.573C1066.96 149.455 1067.89 148.989 1068.48 148.175C1069.07 147.37 1069.39 146.372 1069.37 145.348C1069.41 144.381 1069.09 143.438 1068.48 142.72Z" fill="white"/>
<path d="M1087.22 157.242C1086.77 157.283 1086.39 156.907 1086.39 156.429L1086.42 114.177C1086.42 113.754 1086.73 113.402 1087.12 113.365L1113.45 110.925C1113.89 110.883 1114.28 111.259 1114.28 111.738L1114.27 119.715C1114.27 120.138 1113.97 120.49 1113.57 120.527L1097.19 122.049C1096.79 122.085 1096.49 122.438 1096.49 122.86L1096.48 128.556C1096.48 129.034 1096.87 129.41 1097.31 129.369L1110.84 128.114C1111.29 128.073 1111.67 128.449 1111.67 128.927L1111.67 136.908C1111.67 137.33 1111.36 137.683 1110.97 137.719L1097.17 138.999C1096.78 139.036 1096.48 139.388 1096.48 139.811L1096.47 145.877C1096.47 146.355 1096.85 146.732 1097.3 146.69L1113.42 145.196C1113.87 145.155 1114.25 145.531 1114.25 146.009L1114.24 153.99C1114.24 154.412 1113.94 154.765 1113.55 154.801L1087.22 157.242Z" fill="white"/>
<path d="M1139.82 118.092C1139.43 118.128 1139.12 118.481 1139.12 118.903L1139.1 151.681C1139.1 152.103 1138.8 152.456 1138.4 152.492L1129.86 153.284C1129.41 153.326 1129.03 152.95 1129.03 152.471L1129.05 119.98C1129.05 119.502 1128.67 119.126 1128.22 119.167L1119.81 119.947C1119.37 119.988 1118.98 119.612 1118.98 119.134L1118.99 111.153C1118.99 110.731 1119.29 110.378 1119.69 110.342L1148.37 107.682C1148.82 107.64 1149.2 108.016 1149.2 108.495L1149.2 116.475C1149.2 116.898 1148.89 117.25 1148.5 117.287L1139.82 118.092Z" fill="white"/>
<path d="M1173.48 114.968C1173.09 115.005 1172.78 115.357 1172.78 115.78L1172.76 148.56C1172.76 148.983 1172.45 149.335 1172.06 149.372L1163.52 150.164C1163.07 150.206 1162.69 149.83 1162.69 149.351L1162.71 116.857C1162.71 116.378 1162.33 116.002 1161.88 116.044L1153.47 116.823C1153.03 116.865 1152.64 116.489 1152.64 116.01L1152.65 108.033C1152.65 107.611 1152.95 107.258 1153.35 107.222L1182.03 104.562C1182.48 104.52 1182.86 104.896 1182.86 105.375L1182.85 113.352C1182.85 113.775 1182.55 114.127 1182.16 114.164L1173.48 114.968Z" fill="white"/>
<path d="M1189.53 147.747C1189.08 147.789 1188.7 147.413 1188.7 146.934L1188.73 104.685C1188.73 104.263 1189.03 103.91 1189.43 103.874L1215.75 101.433C1216.2 101.392 1216.58 101.768 1216.58 102.247L1216.57 110.224C1216.57 110.646 1216.27 110.999 1215.87 111.035L1199.49 112.554C1199.09 112.591 1198.79 112.943 1198.79 113.366L1198.79 119.065C1198.79 119.543 1199.17 119.919 1199.62 119.878L1213.14 118.623C1213.59 118.581 1213.98 118.958 1213.97 119.436L1213.97 127.413C1213.97 127.836 1213.67 128.188 1213.27 128.225L1199.47 129.508C1199.08 129.544 1198.78 129.897 1198.78 130.319L1198.77 136.386C1198.77 136.864 1199.16 137.24 1199.6 137.199L1215.72 135.705C1216.17 135.663 1216.55 136.039 1216.55 136.518L1216.55 144.495C1216.55 144.918 1216.24 145.27 1215.85 145.307L1189.53 147.747Z" fill="white"/>
<path d="M1244.91 142.609C1244.6 142.639 1244.3 142.459 1244.16 142.157L1237.39 127.484C1237.25 127.182 1236.95 127.002 1236.63 127.032L1234.45 127.243C1234.06 127.281 1233.75 127.633 1233.75 128.054L1233.74 142.897C1233.74 143.32 1233.44 143.672 1233.05 143.709L1224.5 144.501C1224.06 144.542 1223.67 144.166 1223.67 143.688L1223.71 101.439C1223.71 101.017 1224.01 100.664 1224.4 100.628L1239.93 99.1883C1241.92 98.9666 1243.93 99.1667 1245.85 99.7771C1247.51 100.307 1249.02 101.243 1250.28 102.511C1251.46 103.722 1252.38 105.192 1252.98 106.819C1253.6 108.468 1253.91 110.227 1253.9 112.003C1253.95 114.569 1253.28 117.091 1251.97 119.24C1250.9 121.011 1249.49 122.519 1247.85 123.672C1247.51 123.913 1247.38 124.394 1247.57 124.781L1255.52 140.481C1255.78 140.997 1255.46 141.63 1254.92 141.681L1244.91 142.609ZM1242.66 109.938C1241.88 109.125 1240.81 108.781 1239.47 108.908L1234.49 109.362C1234.09 109.398 1233.79 109.751 1233.79 110.174L1233.78 117.412C1233.78 117.89 1234.17 118.266 1234.61 118.225L1239.48 117.774C1240.08 117.743 1240.68 117.584 1241.22 117.305C1241.77 117.027 1242.27 116.634 1242.67 116.151C1243.43 115.275 1243.85 114.125 1243.85 112.93C1243.86 112.37 1243.76 111.814 1243.56 111.298C1243.35 110.783 1243.05 110.32 1242.66 109.938Z" fill="white"/>
<path d="M1209.13 154.134L1255.37 149.845C1255.76 149.809 1256.07 149.457 1256.07 149.034L1256.07 147.36C1256.07 146.882 1255.68 146.506 1255.24 146.547L1209.13 150.823" fill="white"/>
<path d="M1179.14 156.864L1201.94 154.75C1202.34 154.713 1202.64 154.361 1202.64 153.939L1202.64 152.264C1202.64 151.786 1202.26 151.41 1201.81 151.451L1179.14 153.553" fill="white"/>
<path d="M1060.82 57.1194L1107.07 52.8307C1107.46 52.7941 1107.76 52.4419 1107.76 52.0194L1107.76 50.3452C1107.76 49.8669 1107.38 49.491 1106.93 49.5324L1060.83 53.8087" fill="white"/>
<path d="M1114.25 52.2166L1137.05 50.1027C1137.44 50.0662 1137.74 49.7139 1137.74 49.2913L1137.75 47.617C1137.75 47.1386 1137.36 46.7626 1136.92 46.804L1114.25 48.9055" fill="white"/>
</g>
<rect x="1109" y="691.069" width="346.746" height="388.163" rx="80.6917" transform="rotate(-12.8421 1109 691.069)" fill="#808AF2"/>
<rect x="125.774" y="247" width="179.805" height="59.75" rx="29.875" fill="#808AF2"/>
<path fill-rule="evenodd" clip-rule="evenodd" d="M177.499 267.868C177.51 267.912 177.516 267.957 177.516 268.003V275.064C177.516 275.155 177.493 275.244 177.448 275.322C177.403 275.401 177.338 275.466 177.26 275.511L171.384 278.923V285.687C171.384 285.871 171.287 286.041 171.129 286.134L158.865 293.256C158.837 293.272 158.806 293.282 158.775 293.293C158.764 293.297 158.753 293.304 158.741 293.307C158.655 293.33 158.565 293.33 158.479 293.307C158.465 293.303 158.453 293.296 158.439 293.29C158.411 293.28 158.382 293.271 158.355 293.256L146.093 286.134C146.015 286.088 145.95 286.023 145.905 285.945C145.86 285.867 145.836 285.778 145.836 285.687V264.502C145.836 264.456 145.843 264.411 145.854 264.367C145.858 264.352 145.867 264.339 145.872 264.324C145.882 264.297 145.891 264.269 145.905 264.244C145.914 264.227 145.928 264.214 145.94 264.198C145.954 264.178 145.968 264.157 145.985 264.139C146 264.124 146.019 264.113 146.035 264.1C146.054 264.085 146.071 264.068 146.092 264.056H146.092L152.224 260.495C152.301 260.449 152.389 260.426 152.479 260.426C152.568 260.426 152.656 260.449 152.734 260.495L158.865 264.056H158.867C158.887 264.068 158.904 264.085 158.923 264.099C158.939 264.112 158.958 264.124 158.973 264.138C158.99 264.157 159.003 264.178 159.018 264.198C159.029 264.214 159.044 264.227 159.053 264.244C159.068 264.27 159.076 264.297 159.086 264.324C159.091 264.339 159.1 264.352 159.104 264.368C159.116 264.412 159.122 264.457 159.122 264.502V277.734L164.231 274.766V268.002C164.231 267.957 164.237 267.911 164.249 267.868C164.253 267.853 164.262 267.839 164.267 267.825C164.277 267.797 164.286 267.77 164.3 267.745C164.31 267.728 164.324 267.714 164.334 267.699C164.35 267.678 164.362 267.657 164.38 267.639C164.395 267.624 164.414 267.613 164.43 267.601C164.449 267.585 164.466 267.568 164.486 267.556H164.487L170.619 263.995C170.696 263.95 170.784 263.926 170.874 263.926C170.964 263.926 171.052 263.95 171.129 263.995L177.261 267.556C177.282 267.569 177.299 267.585 177.318 267.6C177.334 267.613 177.352 267.624 177.367 267.639C177.385 267.657 177.398 267.678 177.413 267.699C177.425 267.714 177.439 267.728 177.448 267.745C177.462 267.77 177.47 267.797 177.481 267.825C177.486 267.839 177.495 267.853 177.499 267.868ZM176.494 274.766V268.894L174.349 270.14L171.384 271.862V277.734L176.495 274.766H176.494ZM170.363 285.389V279.513L167.447 281.193L159.121 285.986V291.918L170.363 285.389ZM146.859 265.394V285.389L158.099 291.917V285.987L152.227 282.634L152.225 282.633L152.222 282.632C152.203 282.62 152.186 282.603 152.167 282.589C152.151 282.576 152.133 282.566 152.119 282.552L152.118 282.55C152.101 282.534 152.09 282.514 152.076 282.496C152.063 282.479 152.048 282.464 152.037 282.446L152.037 282.444C152.025 282.425 152.018 282.401 152.01 282.379C152.002 282.36 151.991 282.342 151.986 282.322V282.321C151.979 282.296 151.978 282.271 151.975 282.246C151.973 282.226 151.968 282.207 151.968 282.188V282.186V268.361L149.004 266.639L146.859 265.394V265.394ZM152.479 261.536L147.371 264.502L152.478 267.469L157.586 264.502L152.478 261.536H152.479ZM155.136 280.048L158.1 278.327V265.394L155.954 266.64L152.99 268.361V281.295L155.136 280.048ZM170.874 265.036L165.766 268.003L170.874 270.969L175.981 268.002L170.874 265.036ZM170.363 271.862L167.399 270.14L165.253 268.894V274.766L168.217 276.487L170.363 277.734V271.862ZM158.609 285.095L166.102 280.78L169.847 278.624L164.743 275.66L158.866 279.073L153.51 282.183L158.609 285.095Z" fill="white"/>
<path d="M198.606 282.068H204.5V284.375H195.747V266.946H198.606V282.068ZM205.938 277.403C205.938 276.016 206.222 274.787 206.79 273.717C207.375 272.647 208.161 271.819 209.148 271.234C210.151 270.632 211.254 270.331 212.458 270.331C213.545 270.331 214.489 270.549 215.292 270.983C216.111 271.401 216.763 271.928 217.248 272.563V270.557H220.132V284.375H217.248V282.319C216.763 282.971 216.103 283.514 215.267 283.949C214.431 284.383 213.478 284.601 212.408 284.601C211.221 284.601 210.134 284.3 209.148 283.698C208.161 283.079 207.375 282.227 206.79 281.14C206.222 280.036 205.938 278.791 205.938 277.403ZM217.248 277.453C217.248 276.5 217.047 275.673 216.646 274.971C216.261 274.269 215.752 273.734 215.116 273.366C214.481 272.998 213.795 272.814 213.06 272.814C212.324 272.814 211.639 272.998 211.003 273.366C210.368 273.717 209.85 274.243 209.449 274.946C209.064 275.631 208.872 276.45 208.872 277.403C208.872 278.356 209.064 279.192 209.449 279.911C209.85 280.63 210.368 281.182 211.003 281.566C211.655 281.934 212.341 282.118 213.06 282.118C213.795 282.118 214.481 281.934 215.116 281.566C215.752 281.198 216.261 280.663 216.646 279.961C217.047 279.242 217.248 278.406 217.248 277.453ZM226.746 272.563C227.164 271.861 227.715 271.318 228.401 270.933C229.103 270.532 229.931 270.331 230.884 270.331V273.29H230.156C229.036 273.29 228.184 273.575 227.598 274.143C227.03 274.712 226.746 275.698 226.746 277.102V284.375H223.887V270.557H226.746V272.563ZM232.559 277.403C232.559 276.016 232.843 274.787 233.411 273.717C233.996 272.647 234.782 271.819 235.769 271.234C236.772 270.632 237.875 270.331 239.079 270.331C240.166 270.331 241.11 270.549 241.913 270.983C242.732 271.401 243.384 271.928 243.869 272.563V270.557H246.753V284.375H243.869V282.319C243.384 282.971 242.724 283.514 241.888 283.949C241.052 284.383 240.099 284.601 239.029 284.601C237.842 284.601 236.755 284.3 235.769 283.698C234.782 283.079 233.996 282.227 233.411 281.14C232.843 280.036 232.559 278.791 232.559 277.403ZM243.869 277.453C243.869 276.5 243.668 275.673 243.267 274.971C242.882 274.269 242.373 273.734 241.737 273.366C241.102 272.998 240.416 272.814 239.681 272.814C238.945 272.814 238.26 272.998 237.624 273.366C236.989 273.717 236.471 274.243 236.07 274.946C235.685 275.631 235.493 276.45 235.493 277.403C235.493 278.356 235.685 279.192 236.07 279.911C236.471 280.63 236.989 281.182 237.624 281.566C238.276 281.934 238.962 282.118 239.681 282.118C240.416 282.118 241.102 281.934 241.737 281.566C242.373 281.198 242.882 280.663 243.267 279.961C243.668 279.242 243.869 278.406 243.869 277.453ZM255.849 281.817L259.762 270.557H262.796L257.53 284.375H254.119L248.878 270.557H251.937L255.849 281.817ZM277.622 277.127C277.622 277.646 277.588 278.114 277.521 278.532H266.963C267.047 279.635 267.457 280.521 268.192 281.19C268.928 281.859 269.831 282.193 270.901 282.193C272.439 282.193 273.525 281.55 274.161 280.262H277.245C276.827 281.533 276.067 282.578 274.963 283.397C273.877 284.199 272.522 284.601 270.901 284.601C269.58 284.601 268.393 284.308 267.34 283.723C266.303 283.121 265.484 282.285 264.882 281.215C264.297 280.128 264.004 278.875 264.004 277.453C264.004 276.032 264.288 274.787 264.857 273.717C265.442 272.63 266.253 271.794 267.289 271.209C268.343 270.624 269.546 270.331 270.901 270.331C272.205 270.331 273.367 270.615 274.387 271.184C275.406 271.752 276.2 272.555 276.769 273.591C277.337 274.611 277.622 275.79 277.622 277.127ZM274.637 276.225C274.621 275.171 274.244 274.327 273.509 273.692C272.773 273.056 271.862 272.739 270.775 272.739C269.789 272.739 268.945 273.056 268.242 273.692C267.54 274.31 267.122 275.155 266.988 276.225H274.637ZM283.294 265.817V284.375H280.435V265.817H283.294Z" fill="white"/>
<path d="M351.343 275.826H341.631V285.779H336.534V275.826H326.822V271.21H336.534V261.258H341.631V271.21H351.343V275.826Z" fill="white"/>
<rect x="372.579" y="247" width="180.854" height="59.75" rx="29.875" fill="#808AF2"/>
<path d="M416.15 291.66C416.262 292.033 416.363 292.288 416.393 292.373C416.383 292.368 416.402 292.382 416.393 292.373C416.393 292.373 416.393 292.375 416.393 292.373C416.391 292.373 416.394 292.374 416.393 292.373C415.825 284.276 420.511 281.067 422.161 275.758C422.172 275.679 422.19 275.591 422.217 275.496C422.252 275.376 422.28 275.253 422.303 275.131C422.571 273.655 422.021 271.91 420.93 270.073C420.926 270.063 420.919 270.053 420.913 270.044C420.825 269.892 420.728 269.739 420.631 269.586C420.631 269.583 420.628 269.583 420.628 269.58C420.447 269.301 420.255 269.018 420.053 268.734C420.033 268.706 420.013 268.675 419.992 268.646C419.935 268.569 419.876 268.492 419.821 268.415C419.762 268.334 419.703 268.253 419.645 268.176C419.584 268.097 419.524 268.021 419.464 267.944C419.401 267.863 419.34 267.785 419.276 267.704C419.233 267.649 419.185 267.594 419.139 267.537C417.401 265.394 415.117 263.257 412.724 261.386C412.705 261.359 412.724 261.386 412.724 261.386C412.946 264.433 412.886 267.471 412.517 269.889C412.072 272.804 410.911 276.177 409.356 279.217C405.964 278.824 402.515 277.919 399.843 276.672C397.61 275.627 395.065 274.013 392.643 272.118C392.661 272.372 392.683 272.622 392.705 272.875C392.711 272.949 392.72 273.024 392.727 273.1C392.745 273.28 392.76 273.459 392.782 273.64C392.79 273.723 392.799 273.806 392.81 273.888C392.83 274.07 392.85 274.25 392.874 274.429C392.882 274.502 392.892 274.576 392.901 274.648C392.931 274.876 392.962 275.103 392.996 275.328C392.998 275.351 393 275.373 393.004 275.395C393.042 275.658 393.083 275.919 393.126 276.179C393.128 276.198 393.134 276.217 393.137 276.238C393.175 276.472 393.215 276.702 393.258 276.933C393.266 276.981 393.275 277.027 393.283 277.074C393.324 277.285 393.364 277.495 393.406 277.705C393.417 277.745 393.425 277.785 393.433 277.828C393.483 278.07 393.534 278.31 393.589 278.548C393.59 278.549 393.59 278.552 393.59 278.552C393.766 279.315 393.962 280.054 394.177 280.764C394.179 280.773 394.182 280.781 394.183 280.79C394.549 281.975 394.971 283.07 395.452 284.032C395.524 284.171 395.596 284.309 395.669 284.443C395.673 284.447 395.673 284.453 395.676 284.458C395.677 284.458 395.678 284.459 395.678 284.459C395.743 284.581 395.81 284.701 395.878 284.817C395.879 284.819 395.881 284.819 395.881 284.819C395.883 284.823 395.886 284.828 395.889 284.832C395.962 284.957 396.036 285.081 396.113 285.198C396.113 285.199 396.113 285.199 396.113 285.199C396.123 285.216 396.133 285.23 396.145 285.246C396.146 285.247 396.145 285.25 396.145 285.25C396.243 285.403 396.346 285.552 396.446 285.693C396.466 285.717 396.483 285.739 396.499 285.762C396.504 285.771 396.51 285.779 396.516 285.789C396.634 285.948 396.754 286.102 396.878 286.246C396.964 286.348 397.053 286.444 397.141 286.539C397.18 286.579 397.218 286.616 397.257 286.654C397.312 286.711 397.369 286.764 397.426 286.819C397.467 286.858 397.512 286.892 397.556 286.931C397.608 286.979 397.665 287.025 397.72 287.071C397.764 287.107 397.807 287.14 397.854 287.173C397.911 287.217 397.966 287.258 398.024 287.3C398.068 287.329 398.114 287.359 398.158 287.388C398.219 287.426 398.281 287.463 398.342 287.501C398.384 287.525 398.428 287.55 398.47 287.572C398.541 287.609 398.611 287.642 398.684 287.676C398.718 287.69 398.754 287.711 398.791 287.725C398.9 287.774 399.011 287.814 399.121 287.85C399.196 287.875 399.26 287.901 399.32 287.926C404.657 289.529 409.976 287.449 416.394 292.373" fill="#BABEE5"/>
<g opacity="0.8">
<path opacity="0.51" d="M412.516 269.89C412.071 272.805 410.91 276.177 409.354 279.217C415.373 279.917 421.213 279.002 422.218 275.496C423.315 271.667 418.342 265.778 412.722 261.387C412.952 264.454 412.888 267.455 412.516 269.89Z" fill="white"/>
<path opacity="0.51" d="M399.843 276.673C397.61 275.628 395.065 274.014 392.642 272.119C393.175 279.234 395.328 286.64 399.121 287.852C402.593 288.96 406.597 284.613 409.355 279.218C405.964 278.825 402.514 277.92 399.843 276.673Z" fill="white"/>
</g>
<g opacity="0.7">
<path opacity="0.7" d="M404.63 283.412C395.77 280.122 392.642 272.116 392.642 272.116C392.967 276.475 393.903 280.943 395.452 284.031C395.519 284.163 395.588 284.297 395.657 284.425C395.664 284.438 395.671 284.447 395.675 284.457C395.742 284.58 395.81 284.701 395.879 284.818C395.888 284.835 395.899 284.851 395.908 284.864C395.976 284.98 396.043 285.091 396.112 285.199C396.122 285.215 396.132 285.23 396.144 285.245C396.214 285.355 396.285 285.463 396.356 285.568C396.404 285.634 396.451 285.698 396.498 285.76C396.509 285.777 396.522 285.791 396.533 285.808C396.566 285.854 396.6 285.899 396.632 285.941C396.714 286.047 396.796 286.146 396.879 286.243C397.547 287.026 398.294 287.585 399.121 287.848C399.196 287.872 399.26 287.899 399.32 287.924C404.657 289.527 409.976 287.447 416.395 292.371C415.905 291.726 411.341 285.904 404.63 283.412Z" fill="white"/>
<path opacity="0.7" d="M422.218 275.494C423.315 271.665 418.342 265.775 412.722 261.384C412.722 261.384 417.62 268.433 415.441 277.627C413.76 284.724 416.201 291.833 416.393 292.373C416.382 292.368 416.402 292.382 416.393 292.373C416.393 292.373 416.393 292.375 416.393 292.373C416.391 292.373 416.394 292.375 416.393 292.373C415.825 284.276 420.511 281.067 422.161 275.757C422.173 275.676 422.191 275.59 422.218 275.494Z" fill="white"/>
</g>
<path d="M450.957 280.814H443.659L442.405 284.375H439.421L445.665 266.921H448.975L455.22 284.375H452.211L450.957 280.814ZM450.154 278.482L447.32 270.381L444.461 278.482H450.154ZM463.402 277.479L469.772 284.375H465.91L460.794 278.431V284.375H457.935V265.817H460.794V276.601L465.81 270.557H469.772L463.402 277.479ZM484.485 277.127C484.485 277.646 484.452 278.114 484.385 278.532H473.827C473.911 279.635 474.32 280.521 475.056 281.19C475.792 281.859 476.695 282.193 477.765 282.193C479.303 282.193 480.389 281.55 481.025 280.262H484.109C483.691 281.533 482.931 282.578 481.827 283.397C480.74 284.199 479.386 284.601 477.765 284.601C476.444 284.601 475.257 284.308 474.203 283.723C473.167 283.121 472.348 282.285 471.746 281.215C471.161 280.128 470.868 278.875 470.868 277.453C470.868 276.032 471.152 274.787 471.721 273.717C472.306 272.63 473.117 271.794 474.153 271.209C475.207 270.624 476.41 270.331 477.765 270.331C479.069 270.331 480.231 270.615 481.25 271.184C482.27 271.752 483.064 272.555 483.633 273.591C484.201 274.611 484.485 275.79 484.485 277.127ZM481.501 276.225C481.484 275.171 481.108 274.327 480.373 273.692C479.637 273.056 478.726 272.739 477.639 272.739C476.653 272.739 475.808 273.056 475.106 273.692C474.404 274.31 473.986 275.155 473.852 276.225H481.501ZM494.271 270.331C495.357 270.331 496.327 270.557 497.18 271.008C498.049 271.46 498.726 272.129 499.211 273.015C499.696 273.901 499.938 274.971 499.938 276.225V284.375H497.104V276.651C497.104 275.414 496.795 274.469 496.177 273.817C495.558 273.148 494.714 272.814 493.644 272.814C492.574 272.814 491.721 273.148 491.086 273.817C490.467 274.469 490.158 275.414 490.158 276.651V284.375H487.299V270.557H490.158V272.137C490.626 271.568 491.219 271.125 491.938 270.808C492.674 270.49 493.451 270.331 494.271 270.331ZM516.249 277.127C516.249 277.646 516.216 278.114 516.149 278.532H505.591C505.675 279.635 506.084 280.521 506.82 281.19C507.556 281.859 508.458 282.193 509.528 282.193C511.067 282.193 512.153 281.55 512.789 280.262H515.873C515.455 281.533 514.695 282.578 513.591 283.397C512.504 284.199 511.15 284.601 509.528 284.601C508.208 284.601 507.021 284.308 505.967 283.723C504.931 283.121 504.112 282.285 503.51 281.215C502.925 280.128 502.632 278.875 502.632 277.453C502.632 276.032 502.916 274.787 503.485 273.717C504.07 272.63 504.881 271.794 505.917 271.209C506.97 270.624 508.174 270.331 509.528 270.331C510.833 270.331 511.994 270.615 513.014 271.184C514.034 271.752 514.828 272.555 515.397 273.591C515.965 274.611 516.249 275.79 516.249 277.127ZM513.265 276.225C513.248 275.171 512.872 274.327 512.137 273.692C511.401 273.056 510.49 272.739 509.403 272.739C508.417 272.739 507.572 273.056 506.87 273.692C506.168 274.31 505.75 275.155 505.616 276.225H513.265ZM525.056 284.601C523.752 284.601 522.574 284.308 521.52 283.723C520.467 283.121 519.64 282.285 519.038 281.215C518.436 280.128 518.135 278.875 518.135 277.453C518.135 276.049 518.444 274.804 519.063 273.717C519.681 272.63 520.526 271.794 521.596 271.209C522.666 270.624 523.861 270.331 525.182 270.331C526.503 270.331 527.698 270.624 528.768 271.209C529.838 271.794 530.682 272.63 531.301 273.717C531.92 274.804 532.229 276.049 532.229 277.453C532.229 278.858 531.911 280.103 531.276 281.19C530.641 282.277 529.771 283.121 528.668 283.723C527.581 284.308 526.377 284.601 525.056 284.601ZM525.056 282.118C525.792 282.118 526.478 281.942 527.113 281.591C527.765 281.24 528.292 280.714 528.693 280.011C529.094 279.309 529.295 278.457 529.295 277.453C529.295 276.45 529.102 275.606 528.718 274.921C528.333 274.218 527.823 273.692 527.188 273.341C526.553 272.99 525.867 272.814 525.132 272.814C524.396 272.814 523.711 272.99 523.075 273.341C522.457 273.692 521.964 274.218 521.596 274.921C521.228 275.606 521.044 276.45 521.044 277.453C521.044 278.941 521.42 280.095 522.173 280.914C522.942 281.717 523.903 282.118 525.056 282.118Z" fill="white"/>
<path d="M137.884 380.89H149.525V387.75H128.996V351.265H137.884V380.89ZM151.997 373.198C151.997 370.218 152.552 367.602 153.661 365.35C154.804 363.098 156.346 361.365 158.286 360.153C160.226 358.94 162.392 358.333 164.783 358.333C166.827 358.333 168.611 358.749 170.136 359.581C171.695 360.412 172.89 361.504 173.722 362.855V358.749H182.609V387.75H173.722V383.644C172.856 384.995 171.643 386.087 170.084 386.918C168.559 387.75 166.775 388.166 164.731 388.166C162.375 388.166 160.226 387.559 158.286 386.347C156.346 385.099 154.804 383.35 153.661 381.098C152.552 378.811 151.997 376.177 151.997 373.198ZM173.722 373.25C173.722 371.032 173.098 369.282 171.851 368C170.638 366.718 169.148 366.077 167.381 366.077C165.614 366.077 164.107 366.718 162.86 368C161.647 369.248 161.041 370.98 161.041 373.198C161.041 375.415 161.647 377.182 162.86 378.499C164.107 379.781 165.614 380.422 167.381 380.422C169.148 380.422 170.638 379.781 171.851 378.499C173.098 377.217 173.722 375.467 173.722 373.25ZM197.926 363.583C198.966 361.989 200.265 360.742 201.824 359.841C203.383 358.905 205.116 358.437 207.021 358.437V367.844H204.579C202.361 367.844 200.698 368.33 199.589 369.3C198.481 370.235 197.926 371.898 197.926 374.289V387.75H189.039V358.749H197.926V363.583ZM209.502 373.198C209.502 370.218 210.057 367.602 211.165 365.35C212.309 363.098 213.851 361.365 215.791 360.153C217.731 358.94 219.897 358.333 222.288 358.333C224.332 358.333 226.116 358.749 227.641 359.581C229.2 360.412 230.395 361.504 231.227 362.855V358.749H240.114V387.75H231.227V383.644C230.361 384.995 229.148 386.087 227.589 386.918C226.064 387.75 224.28 388.166 222.236 388.166C219.879 388.166 217.731 387.559 215.791 386.347C213.851 385.099 212.309 383.35 211.165 381.098C210.057 378.811 209.502 376.177 209.502 373.198ZM231.227 373.25C231.227 371.032 230.603 369.282 229.356 368C228.143 366.718 226.653 366.077 224.886 366.077C223.119 366.077 221.612 366.718 220.365 368C219.152 369.248 218.546 370.98 218.546 373.198C218.546 375.415 219.152 377.182 220.365 378.499C221.612 379.781 223.119 380.422 224.886 380.422C226.653 380.422 228.143 379.781 229.356 378.499C230.603 377.217 231.227 375.467 231.227 373.25ZM259.589 379.434L265.878 358.749H275.337L265.046 387.75H254.08L243.789 358.749H253.3L259.589 379.434ZM306.415 372.782C306.415 373.613 306.363 374.48 306.259 375.381H286.146C286.284 377.182 286.856 378.568 287.861 379.538C288.9 380.474 290.165 380.942 291.655 380.942C293.872 380.942 295.414 380.006 296.28 378.135H305.739C305.254 380.041 304.371 381.756 303.089 383.28C301.841 384.805 300.265 386 298.359 386.866C296.454 387.733 294.323 388.166 291.967 388.166C289.125 388.166 286.596 387.559 284.379 386.347C282.161 385.134 280.429 383.402 279.181 381.149C277.934 378.897 277.31 376.264 277.31 373.25C277.31 370.235 277.917 367.602 279.129 365.35C280.377 363.098 282.109 361.365 284.327 360.153C286.544 358.94 289.091 358.333 291.967 358.333C294.773 358.333 297.268 358.923 299.451 360.101C301.634 361.279 303.331 362.959 304.544 365.142C305.791 367.325 306.415 369.871 306.415 372.782ZM297.32 370.443C297.32 368.919 296.8 367.706 295.761 366.805C294.721 365.904 293.422 365.454 291.863 365.454C290.373 365.454 289.108 365.887 288.069 366.753C287.064 367.619 286.44 368.849 286.198 370.443H297.32ZM319.991 349.29V387.75H311.104V349.29H319.991ZM360.157 381.305H346.54L344.357 387.75H335.054L348.255 351.265H358.546L371.747 387.75H362.34L360.157 381.305ZM357.87 374.445L353.349 361.088L348.879 374.445H357.87ZM393.487 387.75L384.652 375.588V387.75H375.765V349.29H384.652V370.547L393.436 358.749H404.402L392.344 373.302L404.506 387.75H393.487ZM435.23 372.782C435.23 373.613 435.178 374.48 435.074 375.381H414.961C415.099 377.182 415.671 378.568 416.676 379.538C417.715 380.474 418.98 380.942 420.47 380.942C422.687 380.942 424.229 380.006 425.095 378.135H434.554C434.069 380.041 433.186 381.756 431.904 383.28C430.656 384.805 429.08 386 427.174 386.866C425.269 387.733 423.138 388.166 420.782 388.166C417.94 388.166 415.411 387.559 413.194 386.347C410.976 385.134 409.244 383.402 407.996 381.149C406.749 378.897 406.125 376.264 406.125 373.25C406.125 370.235 406.732 367.602 407.944 365.35C409.192 363.098 410.924 361.365 413.142 360.153C415.359 358.94 417.906 358.333 420.782 358.333C423.588 358.333 426.083 358.923 428.266 360.101C430.449 361.279 432.146 362.959 433.359 365.142C434.606 367.325 435.23 369.871 435.23 372.782ZM426.135 370.443C426.135 368.919 425.615 367.706 424.576 366.805C423.536 365.904 422.237 365.454 420.678 365.454C419.188 365.454 417.923 365.887 416.884 366.753C415.879 367.619 415.255 368.849 415.013 370.443H426.135ZM457.589 358.437C460.985 358.437 463.687 359.546 465.697 361.764C467.741 363.947 468.763 366.961 468.763 370.807V387.75H459.928V372.002C459.928 370.062 459.426 368.555 458.421 367.481C457.416 366.407 456.065 365.87 454.367 365.87C452.669 365.87 451.318 366.407 450.313 367.481C449.308 368.555 448.806 370.062 448.806 372.002V387.75H439.919V358.749H448.806V362.595C449.707 361.313 450.919 360.308 452.444 359.581C453.969 358.819 455.684 358.437 457.589 358.437ZM502.277 372.782C502.277 373.613 502.225 374.48 502.121 375.381H482.007C482.146 377.182 482.718 378.568 483.723 379.538C484.762 380.474 486.027 380.942 487.517 380.942C489.734 380.942 491.276 380.006 492.142 378.135H501.601C501.116 380.041 500.233 381.756 498.951 383.28C497.703 384.805 496.127 386 494.221 386.866C492.315 387.733 490.185 388.166 487.828 388.166C484.987 388.166 482.458 387.559 480.24 386.347C478.023 385.134 476.29 383.402 475.043 381.149C473.796 378.897 473.172 376.264 473.172 373.25C473.172 370.235 473.778 367.602 474.991 365.35C476.239 363.098 477.971 361.365 480.188 360.153C482.406 358.94 484.953 358.333 487.828 358.333C490.635 358.333 493.13 358.923 495.312 360.101C497.495 361.279 499.193 362.959 500.406 365.142C501.653 367.325 502.277 369.871 502.277 372.782ZM493.182 370.443C493.182 368.919 492.662 367.706 491.622 366.805C490.583 365.904 489.284 365.454 487.724 365.454C486.235 365.454 484.97 365.887 483.93 366.753C482.926 367.619 482.302 368.849 482.059 370.443H493.182ZM520.166 388.166C517.325 388.166 514.761 387.559 512.474 386.347C510.222 385.134 508.438 383.402 507.121 381.149C505.839 378.897 505.198 376.264 505.198 373.25C505.198 370.27 505.857 367.654 507.173 365.402C508.49 363.115 510.292 361.365 512.578 360.153C514.865 358.94 517.429 358.333 520.27 358.333C523.111 358.333 525.675 358.94 527.962 360.153C530.249 361.365 532.051 363.115 533.367 365.402C534.684 367.654 535.342 370.27 535.342 373.25C535.342 376.229 534.667 378.863 533.315 381.149C531.999 383.402 530.18 385.134 527.858 386.347C525.572 387.559 523.008 388.166 520.166 388.166ZM520.166 380.474C521.864 380.474 523.302 379.85 524.48 378.603C525.693 377.355 526.299 375.571 526.299 373.25C526.299 370.928 525.71 369.144 524.532 367.896C523.389 366.649 521.968 366.025 520.27 366.025C518.538 366.025 517.1 366.649 515.957 367.896C514.813 369.109 514.241 370.894 514.241 373.25C514.241 375.571 514.796 377.355 515.905 378.603C517.048 379.85 518.469 380.474 520.166 380.474ZM559.958 351.265V387.75H551.071V351.265H559.958ZM603.403 358.437C607.007 358.437 609.865 359.529 611.979 361.712C614.127 363.895 615.201 366.926 615.201 370.807V387.75H606.366V372.002C606.366 370.131 605.863 368.693 604.859 367.689C603.888 366.649 602.537 366.129 600.805 366.129C599.072 366.129 597.704 366.649 596.699 367.689C595.729 368.693 595.244 370.131 595.244 372.002V387.75H586.408V372.002C586.408 370.131 585.906 368.693 584.901 367.689C583.931 366.649 582.58 366.129 580.847 366.129C579.115 366.129 577.746 366.649 576.741 367.689C575.771 368.693 575.286 370.131 575.286 372.002V387.75H566.399V358.749H575.286V362.387C576.187 361.175 577.365 360.222 578.82 359.529C580.276 358.801 581.921 358.437 583.758 358.437C585.941 358.437 587.881 358.905 589.579 359.841C591.311 360.776 592.662 362.11 593.633 363.843C594.637 362.249 596.006 360.949 597.738 359.945C599.471 358.94 601.359 358.437 603.403 358.437ZM619.65 373.198C619.65 370.218 620.204 367.602 621.313 365.35C622.456 363.098 623.998 361.365 625.938 360.153C627.879 358.94 630.044 358.333 632.435 358.333C634.479 358.333 636.264 358.749 637.788 359.581C639.347 360.412 640.543 361.504 641.374 362.855V358.749H650.262V387.75H641.374V383.644C640.508 384.995 639.295 386.087 637.736 386.918C636.212 387.75 634.427 388.166 632.383 388.166C630.027 388.166 627.879 387.559 625.938 386.347C623.998 385.099 622.456 383.35 621.313 381.098C620.204 378.811 619.65 376.177 619.65 373.198ZM641.374 373.25C641.374 371.032 640.751 369.282 639.503 368C638.291 366.718 636.801 366.077 635.034 366.077C633.267 366.077 631.759 366.718 630.512 368C629.299 369.248 628.693 370.98 628.693 373.198C628.693 375.415 629.299 377.182 630.512 378.499C631.759 379.781 633.267 380.422 635.034 380.422C636.801 380.422 638.291 379.781 639.503 378.499C640.751 377.217 641.374 375.467 641.374 373.25ZM667.709 358.333C669.754 358.333 671.538 358.749 673.063 359.581C674.622 360.412 675.817 361.504 676.649 362.855V358.749H685.536V387.698C685.536 390.366 684.999 392.774 683.925 394.922C682.885 397.105 681.274 398.837 679.091 400.119C676.943 401.401 674.258 402.042 671.036 402.042C666.739 402.042 663.257 401.02 660.589 398.976C657.921 396.966 656.397 394.229 656.016 390.764H664.799C665.076 391.873 665.734 392.739 666.774 393.363C667.813 394.021 669.095 394.351 670.62 394.351C672.456 394.351 673.911 393.813 674.986 392.739C676.094 391.7 676.649 390.019 676.649 387.698V383.592C675.782 384.943 674.587 386.052 673.063 386.918C671.538 387.75 669.754 388.166 667.709 388.166C665.319 388.166 663.153 387.559 661.213 386.347C659.272 385.099 657.731 383.35 656.587 381.098C655.478 378.811 654.924 376.177 654.924 373.198C654.924 370.218 655.478 367.602 656.587 365.35C657.731 363.098 659.272 361.365 661.213 360.153C663.153 358.94 665.319 358.333 667.709 358.333ZM676.649 373.25C676.649 371.032 676.025 369.282 674.778 368C673.565 366.718 672.075 366.077 670.308 366.077C668.541 366.077 667.034 366.718 665.786 368C664.574 369.248 663.967 370.98 663.967 373.198C663.967 375.415 664.574 377.182 665.786 378.499C667.034 379.781 668.541 380.422 670.308 380.422C672.075 380.422 673.565 379.781 674.778 378.499C676.025 377.217 676.649 375.467 676.649 373.25ZM719.303 372.782C719.303 373.613 719.251 374.48 719.147 375.381H699.034C699.172 377.182 699.744 378.568 700.749 379.538C701.788 380.474 703.053 380.942 704.543 380.942C706.76 380.942 708.302 380.006 709.169 378.135H718.628C718.142 380.041 717.259 381.756 715.977 383.28C714.73 384.805 713.153 386 711.247 386.866C709.342 387.733 707.211 388.166 704.855 388.166C702.014 388.166 699.484 387.559 697.267 386.347C695.049 385.134 693.317 383.402 692.07 381.149C690.822 378.897 690.199 376.264 690.199 373.25C690.199 370.235 690.805 367.602 692.018 365.35C693.265 363.098 694.997 361.365 697.215 360.153C699.432 358.94 701.979 358.333 704.855 358.333C707.661 358.333 710.156 358.923 712.339 360.101C714.522 361.279 716.219 362.959 717.432 365.142C718.68 367.325 719.303 369.871 719.303 372.782ZM710.208 370.443C710.208 368.919 709.688 367.706 708.649 366.805C707.609 365.904 706.31 365.454 704.751 365.454C703.261 365.454 701.996 365.887 700.957 366.753C699.952 367.619 699.328 368.849 699.086 370.443H710.208ZM735.79 388.166C733.26 388.166 731.008 387.733 729.033 386.866C727.058 386 725.499 384.822 724.356 383.332C723.212 381.808 722.571 380.11 722.433 378.239H731.216C731.32 379.244 731.788 380.058 732.619 380.682C733.451 381.305 734.473 381.617 735.686 381.617C736.794 381.617 737.643 381.409 738.232 380.994C738.856 380.543 739.168 379.971 739.168 379.278C739.168 378.447 738.735 377.841 737.868 377.459C737.002 377.044 735.599 376.593 733.659 376.108C731.58 375.623 729.847 375.121 728.461 374.601C727.075 374.047 725.88 373.198 724.875 372.054C723.87 370.876 723.368 369.3 723.368 367.325C723.368 365.662 723.818 364.154 724.719 362.803C725.655 361.417 727.006 360.326 728.773 359.529C730.575 358.732 732.706 358.333 735.166 358.333C738.804 358.333 741.662 359.234 743.741 361.036C745.855 362.838 747.068 365.229 747.379 368.208H739.168C739.029 367.203 738.579 366.407 737.816 365.818C737.089 365.229 736.119 364.934 734.906 364.934C733.867 364.934 733.07 365.142 732.515 365.558C731.961 365.939 731.684 366.476 731.684 367.169C731.684 368 732.117 368.624 732.983 369.04C733.884 369.456 735.27 369.871 737.141 370.287C739.289 370.842 741.039 371.396 742.39 371.95C743.741 372.47 744.919 373.336 745.924 374.549C746.964 375.727 747.501 377.321 747.535 379.33C747.535 381.028 747.05 382.553 746.08 383.904C745.145 385.221 743.776 386.26 741.974 387.022C740.207 387.785 738.146 388.166 735.79 388.166Z" fill="white"/>
<path d="M163.187 482.561C163.55 482.947 163.745 483.461 163.729 483.99C163.713 484.52 163.487 485.021 163.102 485.384L141.98 505.292C141.549 505.697 140.977 505.918 140.385 505.907C139.794 505.896 139.23 505.654 138.815 505.233L131.677 497.988C131.488 497.803 131.337 497.581 131.235 497.337C131.132 497.092 131.079 496.83 131.079 496.565C131.079 496.3 131.131 496.038 131.234 495.793C131.336 495.549 131.486 495.327 131.674 495.141C131.863 494.955 132.087 494.808 132.333 494.709C132.579 494.611 132.842 494.562 133.107 494.566C133.372 494.57 133.633 494.627 133.876 494.733C134.119 494.839 134.338 494.992 134.521 495.184L140.472 501.222L160.364 482.476C160.749 482.112 161.264 481.918 161.793 481.934C162.322 481.95 162.824 482.175 163.187 482.561Z" fill="white"/>
<path d="M209.095 499.589H199.3L197.495 504.584H194.402L202.522 482.253H205.905L213.993 504.584H210.9L209.095 499.589ZM208.258 497.205L204.198 485.862L200.137 497.205H208.258ZM233.193 486.926V504.584H230.26V501.974C229.702 502.876 228.918 503.585 227.908 504.101C226.92 504.595 225.824 504.842 224.621 504.842C223.247 504.842 222.011 504.563 220.916 504.004C219.82 503.424 218.95 502.565 218.306 501.426C217.683 500.288 217.371 498.902 217.371 497.269V486.926H220.271V496.883C220.271 498.623 220.712 499.965 221.592 500.911C222.473 501.834 223.676 502.296 225.201 502.296C226.77 502.296 228.005 501.813 228.907 500.846C229.809 499.879 230.26 498.472 230.26 496.625V486.926H233.193ZM241.721 489.342V499.751C241.721 500.61 241.903 501.222 242.268 501.587C242.634 501.931 243.267 502.103 244.169 502.103H246.328V504.584H243.686C242.053 504.584 240.829 504.208 240.013 503.456C239.196 502.704 238.788 501.469 238.788 499.751V489.342H236.5V486.926H238.788V482.479H241.721V486.926H246.328V489.342H241.721ZM257.583 504.874C255.928 504.874 254.425 504.498 253.071 503.746C251.739 502.994 250.687 501.931 249.913 500.556C249.162 499.16 248.786 497.549 248.786 495.723C248.786 493.918 249.172 492.328 249.946 490.954C250.741 489.557 251.815 488.494 253.168 487.764C254.521 487.012 256.036 486.636 257.711 486.636C259.387 486.636 260.902 487.012 262.255 487.764C263.608 488.494 264.672 489.547 265.445 490.921C266.24 492.296 266.637 493.897 266.637 495.723C266.637 497.549 266.229 499.16 265.413 500.556C264.618 501.931 263.533 502.994 262.158 503.746C260.783 504.498 259.258 504.874 257.583 504.874ZM257.583 502.296C258.635 502.296 259.623 502.049 260.547 501.555C261.471 501.061 262.212 500.32 262.77 499.332C263.35 498.343 263.641 497.14 263.641 495.723C263.641 494.305 263.361 493.102 262.803 492.114C262.244 491.125 261.514 490.395 260.612 489.922C259.709 489.428 258.732 489.181 257.679 489.181C256.605 489.181 255.617 489.428 254.715 489.922C253.834 490.395 253.125 491.125 252.588 492.114C252.051 493.102 251.782 494.305 251.782 495.723C251.782 497.162 252.04 498.376 252.556 499.364C253.093 500.352 253.802 501.093 254.682 501.587C255.563 502.06 256.53 502.296 257.583 502.296ZM291.728 486.604C293.103 486.604 294.327 486.894 295.401 487.474C296.475 488.032 297.324 488.881 297.947 490.019C298.57 491.158 298.881 492.543 298.881 494.176V504.584H295.981V494.595C295.981 492.833 295.541 491.491 294.66 490.567C293.801 489.622 292.63 489.149 291.148 489.149C289.622 489.149 288.409 489.643 287.506 490.631C286.604 491.598 286.153 493.005 286.153 494.853V504.584H283.253V494.595C283.253 492.833 282.813 491.491 281.932 490.567C281.073 489.622 279.902 489.149 278.42 489.149C276.894 489.149 275.681 489.643 274.778 490.631C273.876 491.598 273.425 493.005 273.425 494.853V504.584H270.493V486.926H273.425V489.471C274.005 488.548 274.778 487.839 275.745 487.345C276.733 486.851 277.818 486.604 279 486.604C280.482 486.604 281.792 486.936 282.931 487.602C284.069 488.268 284.918 489.246 285.476 490.535C285.97 489.289 286.787 488.322 287.925 487.635C289.064 486.947 290.331 486.604 291.728 486.604ZM302.596 495.69C302.596 493.886 302.961 492.307 303.691 490.954C304.422 489.579 305.421 488.515 306.688 487.764C307.977 487.012 309.405 486.636 310.974 486.636C312.52 486.636 313.863 486.969 315.002 487.635C316.14 488.301 316.989 489.138 317.547 490.148V486.926H320.512V504.584H317.547V501.297C316.967 502.328 316.097 503.188 314.937 503.875C313.799 504.541 312.467 504.874 310.941 504.874C309.373 504.874 307.955 504.487 306.688 503.714C305.421 502.941 304.422 501.856 303.691 500.459C302.961 499.063 302.596 497.473 302.596 495.69ZM317.547 495.723C317.547 494.391 317.279 493.231 316.742 492.243C316.205 491.254 315.474 490.503 314.55 489.987C313.648 489.45 312.649 489.181 311.554 489.181C310.458 489.181 309.459 489.439 308.557 489.955C307.655 490.47 306.935 491.222 306.398 492.21C305.861 493.199 305.592 494.359 305.592 495.69C305.592 497.044 305.861 498.225 306.398 499.235C306.935 500.223 307.655 500.986 308.557 501.523C309.459 502.038 310.458 502.296 311.554 502.296C312.649 502.296 313.648 502.038 314.55 501.523C315.474 500.986 316.205 500.223 316.742 499.235C317.279 498.225 317.547 497.055 317.547 495.723ZM329.044 489.342V499.751C329.044 500.61 329.226 501.222 329.592 501.587C329.957 501.931 330.59 502.103 331.493 502.103H333.652V504.584H331.009C329.377 504.584 328.152 504.208 327.336 503.456C326.52 502.704 326.111 501.469 326.111 499.751V489.342H323.824V486.926H326.111V482.479H329.044V486.926H333.652V489.342H329.044ZM338.719 484.058C338.16 484.058 337.688 483.865 337.301 483.478C336.914 483.091 336.721 482.619 336.721 482.06C336.721 481.502 336.914 481.029 337.301 480.642C337.688 480.256 338.16 480.062 338.719 480.062C339.256 480.062 339.707 480.256 340.072 480.642C340.459 481.029 340.652 481.502 340.652 482.06C340.652 482.619 340.459 483.091 340.072 483.478C339.707 483.865 339.256 484.058 338.719 484.058ZM340.137 486.926V504.584H337.204V486.926H340.137ZM344.039 495.723C344.039 493.897 344.404 492.307 345.134 490.954C345.865 489.579 346.874 488.515 348.163 487.764C349.474 487.012 350.967 486.636 352.642 486.636C354.812 486.636 356.595 487.162 357.991 488.215C359.409 489.267 360.344 490.728 360.795 492.597H357.637C357.336 491.523 356.745 490.674 355.865 490.051C355.005 489.428 353.931 489.117 352.642 489.117C350.967 489.117 349.613 489.697 348.582 490.857C347.551 491.996 347.036 493.617 347.036 495.723C347.036 497.849 347.551 499.493 348.582 500.653C349.613 501.813 350.967 502.393 352.642 502.393C353.931 502.393 355.005 502.092 355.865 501.491C356.724 500.889 357.315 500.03 357.637 498.913H360.795C360.322 500.717 359.377 502.167 357.959 503.263C356.541 504.337 354.769 504.874 352.642 504.874C350.967 504.874 349.474 504.498 348.163 503.746C346.874 502.994 345.865 501.931 345.134 500.556C344.404 499.181 344.039 497.57 344.039 495.723ZM374.813 484.058C374.254 484.058 373.781 483.865 373.395 483.478C373.008 483.091 372.815 482.619 372.815 482.06C372.815 481.502 373.008 481.029 373.395 480.642C373.781 480.256 374.254 480.062 374.813 480.062C375.35 480.062 375.801 480.256 376.166 480.642C376.553 481.029 376.746 481.502 376.746 482.06C376.746 482.619 376.553 483.091 376.166 483.478C375.801 483.865 375.35 484.058 374.813 484.058ZM376.23 486.926V504.584H373.298V486.926H376.23ZM402.463 486.604C403.838 486.604 405.062 486.894 406.136 487.474C407.21 488.032 408.059 488.881 408.682 490.019C409.305 491.158 409.616 492.543 409.616 494.176V504.584H406.716V494.595C406.716 492.833 406.276 491.491 405.395 490.567C404.536 489.622 403.365 489.149 401.883 489.149C400.358 489.149 399.144 489.643 398.242 490.631C397.339 491.598 396.888 493.005 396.888 494.853V504.584H393.988V494.595C393.988 492.833 393.548 491.491 392.667 490.567C391.808 489.622 390.637 489.149 389.155 489.149C387.63 489.149 386.416 489.643 385.514 490.631C384.611 491.598 384.16 493.005 384.16 494.853V504.584H381.228V486.926H384.16V489.471C384.74 488.548 385.514 487.839 386.48 487.345C387.468 486.851 388.553 486.604 389.735 486.604C391.217 486.604 392.527 486.936 393.666 487.602C394.805 488.268 395.653 489.246 396.212 490.535C396.706 489.289 397.522 488.322 398.661 487.635C399.799 486.947 401.067 486.604 402.463 486.604ZM413.331 495.69C413.331 493.886 413.696 492.307 414.426 490.954C415.157 489.579 416.156 488.515 417.423 487.764C418.712 487.012 420.141 486.636 421.709 486.636C423.256 486.636 424.598 486.969 425.737 487.635C426.875 488.301 427.724 489.138 428.282 490.148V486.926H431.247V504.584H428.282V501.297C427.702 502.328 426.832 503.188 425.672 503.875C424.534 504.541 423.202 504.874 421.677 504.874C420.108 504.874 418.691 504.487 417.423 503.714C416.156 502.941 415.157 501.856 414.426 500.459C413.696 499.063 413.331 497.473 413.331 495.69ZM428.282 495.723C428.282 494.391 428.014 493.231 427.477 492.243C426.94 491.254 426.209 490.503 425.286 489.987C424.383 489.45 423.384 489.181 422.289 489.181C421.193 489.181 420.194 489.439 419.292 489.955C418.39 490.47 417.67 491.222 417.133 492.21C416.596 493.199 416.328 494.359 416.328 495.69C416.328 497.044 416.596 498.225 417.133 499.235C417.67 500.223 418.39 500.986 419.292 501.523C420.194 502.038 421.193 502.296 422.289 502.296C423.384 502.296 424.383 502.038 425.286 501.523C426.209 500.986 426.94 500.223 427.477 499.235C428.014 498.225 428.282 497.055 428.282 495.723ZM443.485 486.636C445.01 486.636 446.342 486.969 447.48 487.635C448.64 488.301 449.5 489.138 450.058 490.148V486.926H453.023V504.971C453.023 506.582 452.679 508.01 451.992 509.256C451.304 510.524 450.316 511.512 449.027 512.221C447.76 512.93 446.277 513.284 444.58 513.284C442.26 513.284 440.327 512.736 438.78 511.641C437.233 510.545 436.32 509.052 436.041 507.162H438.941C439.263 508.236 439.929 509.095 440.939 509.74C441.949 510.406 443.162 510.739 444.58 510.739C446.191 510.739 447.502 510.234 448.511 509.224C449.543 508.214 450.058 506.797 450.058 504.971V501.265C449.478 502.296 448.619 503.155 447.48 503.843C446.342 504.53 445.01 504.874 443.485 504.874C441.916 504.874 440.488 504.487 439.199 503.714C437.932 502.941 436.933 501.856 436.202 500.459C435.472 499.063 435.107 497.473 435.107 495.69C435.107 493.886 435.472 492.307 436.202 490.954C436.933 489.579 437.932 488.515 439.199 487.764C440.488 487.012 441.916 486.636 443.485 486.636ZM450.058 495.723C450.058 494.391 449.79 493.231 449.253 492.243C448.715 491.254 447.985 490.503 447.061 489.987C446.159 489.45 445.16 489.181 444.065 489.181C442.969 489.181 441.97 489.439 441.068 489.955C440.166 490.47 439.446 491.222 438.909 492.21C438.372 493.199 438.103 494.359 438.103 495.69C438.103 497.044 438.372 498.225 438.909 499.235C439.446 500.223 440.166 500.986 441.068 501.523C441.97 502.038 442.969 502.296 444.065 502.296C445.16 502.296 446.159 502.038 447.061 501.523C447.985 500.986 448.715 500.223 449.253 499.235C449.79 498.225 450.058 497.055 450.058 495.723ZM474.089 495.078C474.089 495.637 474.057 496.227 473.993 496.85H459.879C459.987 498.59 460.577 499.955 461.651 500.943C462.747 501.909 464.068 502.393 465.615 502.393C466.882 502.393 467.935 502.103 468.773 501.523C469.632 500.921 470.233 500.126 470.577 499.138H473.735C473.262 500.835 472.317 502.221 470.899 503.295C469.482 504.348 467.72 504.874 465.615 504.874C463.939 504.874 462.435 504.498 461.104 503.746C459.793 502.994 458.762 501.931 458.01 500.556C457.258 499.16 456.882 497.549 456.882 495.723C456.882 493.897 457.248 492.296 457.978 490.921C458.708 489.547 459.729 488.494 461.039 487.764C462.371 487.012 463.896 486.636 465.615 486.636C467.29 486.636 468.773 487.001 470.062 487.731C471.351 488.462 472.339 489.471 473.026 490.76C473.735 492.028 474.089 493.467 474.089 495.078ZM471.06 494.466C471.06 493.349 470.813 492.393 470.319 491.598C469.825 490.782 469.149 490.17 468.289 489.761C467.452 489.332 466.517 489.117 465.486 489.117C464.004 489.117 462.736 489.59 461.684 490.535C460.652 491.48 460.062 492.79 459.911 494.466H471.06ZM485.455 495.723C485.455 493.897 485.82 492.307 486.551 490.954C487.281 489.579 488.291 488.515 489.58 487.764C490.89 487.012 492.383 486.636 494.059 486.636C496.228 486.636 498.011 487.162 499.408 488.215C500.826 489.267 501.76 490.728 502.211 492.597H499.053C498.753 491.523 498.162 490.674 497.281 490.051C496.422 489.428 495.348 489.117 494.059 489.117C492.383 489.117 491.03 489.697 489.999 490.857C488.967 491.996 488.452 493.617 488.452 495.723C488.452 497.849 488.967 499.493 489.999 500.653C491.03 501.813 492.383 502.393 494.059 502.393C495.348 502.393 496.422 502.092 497.281 501.491C498.14 500.889 498.731 500.03 499.053 498.913H502.211C501.739 500.717 500.793 502.167 499.375 503.263C497.958 504.337 496.185 504.874 494.059 504.874C492.383 504.874 490.89 504.498 489.58 503.746C488.291 502.994 487.281 501.931 486.551 500.556C485.82 499.181 485.455 497.57 485.455 495.723ZM513.825 504.874C512.171 504.874 510.667 504.498 509.314 503.746C507.982 502.994 506.929 501.931 506.156 500.556C505.404 499.16 505.028 497.549 505.028 495.723C505.028 493.918 505.415 492.328 506.188 490.954C506.983 489.557 508.057 488.494 509.41 487.764C510.764 487.012 512.278 486.636 513.954 486.636C515.629 486.636 517.144 487.012 518.497 487.764C519.851 488.494 520.914 489.547 521.687 490.921C522.482 492.296 522.88 493.897 522.88 495.723C522.88 497.549 522.472 499.16 521.655 500.556C520.86 501.931 519.776 502.994 518.401 503.746C517.026 504.498 515.501 504.874 513.825 504.874ZM513.825 502.296C514.878 502.296 515.866 502.049 516.79 501.555C517.713 501.061 518.454 500.32 519.013 499.332C519.593 498.343 519.883 497.14 519.883 495.723C519.883 494.305 519.604 493.102 519.045 492.114C518.487 491.125 517.756 490.395 516.854 489.922C515.952 489.428 514.974 489.181 513.922 489.181C512.848 489.181 511.859 489.428 510.957 489.922C510.076 490.395 509.367 491.125 508.83 492.114C508.293 493.102 508.025 494.305 508.025 495.723C508.025 497.162 508.283 498.376 508.798 499.364C509.335 500.352 510.044 501.093 510.925 501.587C511.806 502.06 512.772 502.296 513.825 502.296ZM535.339 486.604C537.487 486.604 539.227 487.259 540.559 488.569C541.891 489.858 542.557 491.727 542.557 494.176V504.584H539.657V494.595C539.657 492.833 539.216 491.491 538.335 490.567C537.455 489.622 536.252 489.149 534.726 489.149C533.18 489.149 531.945 489.632 531.021 490.599C530.119 491.566 529.667 492.973 529.667 494.82V504.584H526.735V486.926H529.667V489.439C530.247 488.537 531.032 487.839 532.02 487.345C533.029 486.851 534.136 486.604 535.339 486.604ZM554.532 489.342H550.827V504.584H547.894V489.342H545.606V486.926H547.894V485.669C547.894 483.693 548.399 482.253 549.409 481.351C550.44 480.427 552.083 479.966 554.339 479.966V482.415C553.05 482.415 552.137 482.672 551.6 483.188C551.084 483.682 550.827 484.509 550.827 485.669V486.926H554.532V489.342ZM559.466 484.058C558.907 484.058 558.435 483.865 558.048 483.478C557.661 483.091 557.468 482.619 557.468 482.06C557.468 481.502 557.661 481.029 558.048 480.642C558.435 480.256 558.907 480.062 559.466 480.062C560.003 480.062 560.454 480.256 560.819 480.642C561.206 481.029 561.399 481.502 561.399 482.06C561.399 482.619 561.206 483.091 560.819 483.478C560.454 483.865 560.003 484.058 559.466 484.058ZM560.884 486.926V504.584H557.951V486.926H560.884ZM573.163 486.636C574.689 486.636 576.021 486.969 577.159 487.635C578.319 488.301 579.178 489.138 579.737 490.148V486.926H582.702V504.971C582.702 506.582 582.358 508.01 581.67 509.256C580.983 510.524 579.995 511.512 578.706 512.221C577.438 512.93 575.956 513.284 574.259 513.284C571.939 513.284 570.006 512.736 568.459 511.641C566.912 510.545 565.999 509.052 565.72 507.162H568.62C568.942 508.236 569.608 509.095 570.618 509.74C571.628 510.406 572.841 510.739 574.259 510.739C575.87 510.739 577.181 510.234 578.19 509.224C579.221 508.214 579.737 506.797 579.737 504.971V501.265C579.157 502.296 578.298 503.155 577.159 503.843C576.021 504.53 574.689 504.874 573.163 504.874C571.595 504.874 570.167 504.487 568.878 503.714C567.61 502.941 566.611 501.856 565.881 500.459C565.151 499.063 564.785 497.473 564.785 495.69C564.785 493.886 565.151 492.307 565.881 490.954C566.611 489.579 567.61 488.515 568.878 487.764C570.167 487.012 571.595 486.636 573.163 486.636ZM579.737 495.723C579.737 494.391 579.468 493.231 578.931 492.243C578.394 491.254 577.664 490.503 576.74 489.987C575.838 489.45 574.839 489.181 573.744 489.181C572.648 489.181 571.649 489.439 570.747 489.955C569.845 490.47 569.125 491.222 568.588 492.21C568.051 493.199 567.782 494.359 567.782 495.69C567.782 497.044 568.051 498.225 568.588 499.235C569.125 500.223 569.845 500.986 570.747 501.523C571.649 502.038 572.648 502.296 573.744 502.296C574.839 502.296 575.838 502.038 576.74 501.523C577.664 500.986 578.394 500.223 578.931 499.235C579.468 498.225 579.737 497.055 579.737 495.723ZM603.317 486.926V504.584H600.385V501.974C599.826 502.876 599.042 503.585 598.033 504.101C597.044 504.595 595.949 504.842 594.746 504.842C593.371 504.842 592.136 504.563 591.04 504.004C589.945 503.424 589.075 502.565 588.43 501.426C587.807 500.288 587.496 498.902 587.496 497.269V486.926H590.396V496.883C590.396 498.623 590.836 499.965 591.717 500.911C592.598 501.834 593.801 502.296 595.326 502.296C596.894 502.296 598.129 501.813 599.032 500.846C599.934 499.879 600.385 498.472 600.385 496.625V486.926H603.317ZM611.201 489.794C611.716 488.784 612.446 488 613.392 487.441C614.358 486.883 615.529 486.604 616.904 486.604V489.632H616.131C612.844 489.632 611.201 491.415 611.201 494.982V504.584H608.268V486.926H611.201V489.794ZM619.193 495.69C619.193 493.886 619.559 492.307 620.289 490.954C621.019 489.579 622.018 488.515 623.286 487.764C624.575 487.012 626.003 486.636 627.571 486.636C629.118 486.636 630.461 486.969 631.599 487.635C632.738 488.301 633.586 489.138 634.145 490.148V486.926H637.109V504.584H634.145V501.297C633.565 502.328 632.695 503.188 631.535 503.875C630.396 504.541 629.064 504.874 627.539 504.874C625.971 504.874 624.553 504.487 623.286 503.714C622.018 502.941 621.019 501.856 620.289 500.459C619.559 499.063 619.193 497.473 619.193 495.69ZM634.145 495.723C634.145 494.391 633.876 493.231 633.339 492.243C632.802 491.254 632.072 490.503 631.148 489.987C630.246 489.45 629.247 489.181 628.151 489.181C627.056 489.181 626.057 489.439 625.155 489.955C624.252 490.47 623.533 491.222 622.996 492.21C622.459 493.199 622.19 494.359 622.19 495.69C622.19 497.044 622.459 498.225 622.996 499.235C623.533 500.223 624.252 500.986 625.155 501.523C626.057 502.038 627.056 502.296 628.151 502.296C629.247 502.296 630.246 502.038 631.148 501.523C632.072 500.986 632.802 500.223 633.339 499.235C633.876 498.225 634.145 497.055 634.145 495.723ZM645.641 489.342V499.751C645.641 500.61 645.824 501.222 646.189 501.587C646.554 501.931 647.188 502.103 648.09 502.103H650.249V504.584H647.607C645.974 504.584 644.75 504.208 643.934 503.456C643.117 502.704 642.709 501.469 642.709 499.751V489.342H640.421V486.926H642.709V482.479H645.641V486.926H650.249V489.342H645.641ZM655.317 484.058C654.758 484.058 654.286 483.865 653.899 483.478C653.512 483.091 653.319 482.619 653.319 482.06C653.319 481.502 653.512 481.029 653.899 480.642C654.286 480.256 654.758 480.062 655.317 480.062C655.854 480.062 656.305 480.256 656.67 480.642C657.057 481.029 657.25 481.502 657.25 482.06C657.25 482.619 657.057 483.091 656.67 483.478C656.305 483.865 655.854 484.058 655.317 484.058ZM656.734 486.926V504.584H653.802V486.926H656.734ZM669.433 504.874C667.779 504.874 666.276 504.498 664.922 503.746C663.59 502.994 662.538 501.931 661.764 500.556C661.012 499.16 660.636 497.549 660.636 495.723C660.636 493.918 661.023 492.328 661.797 490.954C662.591 489.557 663.665 488.494 665.019 487.764C666.372 487.012 667.887 486.636 669.562 486.636C671.238 486.636 672.752 487.012 674.106 487.764C675.459 488.494 676.522 489.547 677.296 490.921C678.091 492.296 678.488 493.897 678.488 495.723C678.488 497.549 678.08 499.16 677.264 500.556C676.469 501.931 675.384 502.994 674.009 503.746C672.634 504.498 671.109 504.874 669.433 504.874ZM669.433 502.296C670.486 502.296 671.474 502.049 672.398 501.555C673.322 501.061 674.063 500.32 674.621 499.332C675.201 498.343 675.491 497.14 675.491 495.723C675.491 494.305 675.212 493.102 674.654 492.114C674.095 491.125 673.365 490.395 672.462 489.922C671.56 489.428 670.583 489.181 669.53 489.181C668.456 489.181 667.468 489.428 666.566 489.922C665.685 490.395 664.976 491.125 664.439 492.114C663.902 493.102 663.633 494.305 663.633 495.723C663.633 497.162 663.891 498.376 664.407 499.364C664.944 500.352 665.653 501.093 666.533 501.587C667.414 502.06 668.381 502.296 669.433 502.296ZM690.947 486.604C693.095 486.604 694.835 487.259 696.167 488.569C697.499 489.858 698.165 491.727 698.165 494.176V504.584H695.265V494.595C695.265 492.833 694.825 491.491 693.944 490.567C693.063 489.622 691.86 489.149 690.335 489.149C688.788 489.149 687.553 489.632 686.629 490.599C685.727 491.566 685.276 492.973 685.276 494.82V504.584H682.343V486.926H685.276V489.439C685.856 488.537 686.64 487.839 687.628 487.345C688.638 486.851 689.744 486.604 690.947 486.604Z" fill="white"/>
<path d="M163.187 545.178C163.55 545.564 163.745 546.078 163.729 546.607C163.713 547.137 163.487 547.638 163.102 548.001L141.98 567.909C141.549 568.315 140.977 568.535 140.385 568.525C139.794 568.514 139.23 568.272 138.815 567.85L131.677 560.606C131.488 560.42 131.337 560.198 131.235 559.954C131.132 559.71 131.079 559.447 131.079 559.182C131.079 558.917 131.131 558.655 131.234 558.41C131.336 558.166 131.486 557.944 131.674 557.758C131.863 557.572 132.087 557.425 132.333 557.327C132.579 557.228 132.842 557.179 133.107 557.183C133.372 557.187 133.633 557.244 133.876 557.35C134.119 557.456 134.338 557.609 134.521 557.801L140.472 563.839L160.364 545.093C160.749 544.73 161.264 544.535 161.793 544.551C162.322 544.567 162.824 544.792 163.187 545.178Z" fill="white"/>
<path d="M198.687 544.742V558.952C198.687 560.95 199.171 562.432 200.137 563.399C201.126 564.366 202.49 564.849 204.23 564.849C205.948 564.849 207.291 564.366 208.258 563.399C209.246 562.432 209.74 560.95 209.74 558.952V544.742H212.672V558.92C212.672 560.789 212.296 562.368 211.544 563.657C210.793 564.924 209.772 565.869 208.483 566.492C207.216 567.115 205.787 567.427 204.198 567.427C202.608 567.427 201.169 567.115 199.88 566.492C198.612 565.869 197.603 564.924 196.851 563.657C196.12 562.368 195.755 560.789 195.755 558.92V544.742H198.687ZM223.815 567.491C222.462 567.491 221.248 567.266 220.174 566.814C219.1 566.342 218.251 565.697 217.628 564.881C217.005 564.043 216.662 563.087 216.597 562.013H219.626C219.712 562.894 220.12 563.614 220.851 564.172C221.602 564.731 222.58 565.01 223.783 565.01C224.9 565.01 225.781 564.763 226.425 564.269C227.07 563.775 227.392 563.152 227.392 562.4C227.392 561.627 227.048 561.057 226.361 560.692C225.673 560.305 224.61 559.93 223.171 559.564C221.86 559.221 220.786 558.877 219.948 558.533C219.132 558.168 218.423 557.642 217.822 556.954C217.242 556.245 216.952 555.322 216.952 554.183C216.952 553.281 217.22 552.454 217.757 551.702C218.294 550.95 219.057 550.359 220.045 549.93C221.033 549.478 222.161 549.253 223.428 549.253C225.383 549.253 226.962 549.747 228.165 550.735C229.368 551.723 230.013 553.077 230.099 554.795H227.166C227.102 553.872 226.726 553.13 226.038 552.572C225.373 552.013 224.47 551.734 223.332 551.734C222.279 551.734 221.441 551.96 220.818 552.411C220.195 552.862 219.884 553.453 219.884 554.183C219.884 554.763 220.066 555.246 220.432 555.633C220.818 555.998 221.291 556.299 221.849 556.535C222.429 556.75 223.224 556.997 224.234 557.276C225.501 557.62 226.533 557.964 227.327 558.308C228.122 558.63 228.799 559.124 229.357 559.79C229.937 560.456 230.238 561.326 230.26 562.4C230.26 563.367 229.991 564.237 229.454 565.01C228.917 565.783 228.154 566.396 227.166 566.847C226.2 567.276 225.083 567.491 223.815 567.491ZM250.511 557.695C250.511 558.254 250.478 558.845 250.414 559.468H236.3C236.408 561.208 236.998 562.572 238.073 563.56C239.168 564.527 240.489 565.01 242.036 565.01C243.303 565.01 244.356 564.72 245.194 564.14C246.053 563.538 246.655 562.744 246.998 561.755H250.156C249.684 563.453 248.738 564.838 247.321 565.912C245.903 566.965 244.141 567.491 242.036 567.491C240.36 567.491 238.857 567.115 237.525 566.363C236.214 565.612 235.183 564.548 234.431 563.173C233.679 561.777 233.304 560.166 233.304 558.34C233.304 556.514 233.669 554.913 234.399 553.539C235.129 552.164 236.15 551.111 237.46 550.381C238.792 549.629 240.317 549.253 242.036 549.253C243.712 549.253 245.194 549.618 246.483 550.349C247.772 551.079 248.76 552.089 249.447 553.377C250.156 554.645 250.511 556.084 250.511 557.695ZM247.482 557.083C247.482 555.966 247.235 555.01 246.741 554.215C246.246 553.399 245.57 552.787 244.71 552.379C243.873 551.949 242.938 551.734 241.907 551.734C240.425 551.734 239.157 552.207 238.105 553.152C237.074 554.097 236.483 555.408 236.332 557.083H247.482ZM260.632 567.491C259.279 567.491 258.065 567.266 256.991 566.814C255.917 566.342 255.069 565.697 254.446 564.881C253.823 564.043 253.479 563.087 253.414 562.013H256.443C256.529 562.894 256.938 563.614 257.668 564.172C258.42 564.731 259.397 565.01 260.6 565.01C261.717 565.01 262.598 564.763 263.243 564.269C263.887 563.775 264.209 563.152 264.209 562.4C264.209 561.627 263.865 561.057 263.178 560.692C262.491 560.305 261.427 559.93 259.988 559.564C258.678 559.221 257.603 558.877 256.766 558.533C255.949 558.168 255.24 557.642 254.639 556.954C254.059 556.245 253.769 555.322 253.769 554.183C253.769 553.281 254.037 552.454 254.575 551.702C255.112 550.95 255.874 550.359 256.862 549.93C257.851 549.478 258.978 549.253 260.246 549.253C262.201 549.253 263.78 549.747 264.983 550.735C266.186 551.723 266.83 553.077 266.916 554.795H263.984C263.919 553.872 263.543 553.13 262.856 552.572C262.19 552.013 261.288 551.734 260.149 551.734C259.096 551.734 258.259 551.96 257.636 552.411C257.013 552.862 256.701 553.453 256.701 554.183C256.701 554.763 256.884 555.246 257.249 555.633C257.636 555.998 258.108 556.299 258.667 556.535C259.247 556.75 260.042 556.997 261.051 557.276C262.319 557.62 263.35 557.964 264.145 558.308C264.94 558.63 265.616 559.124 266.175 559.79C266.755 560.456 267.056 561.326 267.077 562.4C267.077 563.367 266.809 564.237 266.271 565.01C265.734 565.783 264.972 566.396 263.984 566.847C263.017 567.276 261.9 567.491 260.632 567.491ZM282.739 564.817H290.602V567.201H279.807V544.742H282.739V564.817ZM292.62 558.308C292.62 556.503 292.986 554.924 293.716 553.571C294.446 552.196 295.445 551.133 296.713 550.381C298.002 549.629 299.43 549.253 300.998 549.253C302.545 549.253 303.888 549.586 305.026 550.252C306.165 550.918 307.013 551.756 307.572 552.765V549.543H310.536V567.201H307.572V563.914C306.992 564.946 306.122 565.805 304.962 566.492C303.823 567.158 302.491 567.491 300.966 567.491C299.398 567.491 297.98 567.105 296.713 566.331C295.445 565.558 294.446 564.473 293.716 563.077C292.986 561.68 292.62 560.091 292.62 558.308ZM307.572 558.34C307.572 557.008 307.303 555.848 306.766 554.86C306.229 553.872 305.499 553.12 304.575 552.604C303.673 552.067 302.674 551.799 301.578 551.799C300.483 551.799 299.484 552.056 298.582 552.572C297.679 553.087 296.96 553.839 296.423 554.828C295.886 555.816 295.617 556.976 295.617 558.308C295.617 559.661 295.886 560.842 296.423 561.852C296.96 562.84 297.679 563.603 298.582 564.14C299.484 564.656 300.483 564.913 301.578 564.913C302.674 564.913 303.673 564.656 304.575 564.14C305.499 563.603 306.229 562.84 306.766 561.852C307.303 560.842 307.572 559.672 307.572 558.34ZM318.424 552.411C318.94 551.401 319.67 550.617 320.615 550.059C321.582 549.5 322.753 549.221 324.127 549.221V552.25H323.354C320.067 552.25 318.424 554.033 318.424 557.599V567.201H315.492V549.543H318.424V552.411ZM326.417 558.308C326.417 556.503 326.782 554.924 327.512 553.571C328.243 552.196 329.242 551.133 330.509 550.381C331.798 549.629 333.227 549.253 334.795 549.253C336.341 549.253 337.684 549.586 338.823 550.252C339.961 550.918 340.81 551.756 341.368 552.765V549.543H344.333V567.201H341.368V563.914C340.788 564.946 339.918 565.805 338.758 566.492C337.62 567.158 336.288 567.491 334.763 567.491C333.194 567.491 331.777 567.105 330.509 566.331C329.242 565.558 328.243 564.473 327.512 563.077C326.782 561.68 326.417 560.091 326.417 558.308ZM341.368 558.34C341.368 557.008 341.1 555.848 340.563 554.86C340.026 553.872 339.295 553.12 338.372 552.604C337.469 552.067 336.47 551.799 335.375 551.799C334.279 551.799 333.28 552.056 332.378 552.572C331.476 553.087 330.756 553.839 330.219 554.828C329.682 555.816 329.414 556.976 329.414 558.308C329.414 559.661 329.682 560.842 330.219 561.852C330.756 562.84 331.476 563.603 332.378 564.14C333.28 564.656 334.279 564.913 335.375 564.913C336.47 564.913 337.469 564.656 338.372 564.14C339.295 563.603 340.026 562.84 340.563 561.852C341.1 560.842 341.368 559.672 341.368 558.34ZM355.862 564.494L361.34 549.543H364.465L357.537 567.201H354.122L347.194 549.543H350.351L355.862 564.494ZM383.462 557.695C383.462 558.254 383.43 558.845 383.365 559.468H369.252C369.359 561.208 369.95 562.572 371.024 563.56C372.12 564.527 373.441 565.01 374.987 565.01C376.255 565.01 377.308 564.72 378.145 564.14C379.005 563.538 379.606 562.744 379.95 561.755H383.108C382.635 563.453 381.69 564.838 380.272 565.912C378.854 566.965 377.093 567.491 374.987 567.491C373.312 567.491 371.808 567.115 370.476 566.363C369.166 565.612 368.135 564.548 367.383 563.173C366.631 561.777 366.255 560.166 366.255 558.34C366.255 556.514 366.62 554.913 367.351 553.539C368.081 552.164 369.101 551.111 370.412 550.381C371.744 549.629 373.269 549.253 374.987 549.253C376.663 549.253 378.145 549.618 379.434 550.349C380.723 551.079 381.711 552.089 382.399 553.377C383.108 554.645 383.462 556.084 383.462 557.695ZM380.433 557.083C380.433 555.966 380.186 555.01 379.692 554.215C379.198 553.399 378.521 552.787 377.662 552.379C376.824 551.949 375.89 551.734 374.859 551.734C373.376 551.734 372.109 552.207 371.056 553.152C370.025 554.097 369.434 555.408 369.284 557.083H380.433ZM390.265 543.356V567.201H387.333V543.356H390.265ZM395.714 544.742H398.968L395.875 552.056H393.813L395.714 544.742ZM408.563 567.491C407.209 567.491 405.996 567.266 404.921 566.814C403.847 566.342 402.999 565.697 402.376 564.881C401.753 564.043 401.409 563.087 401.345 562.013H404.374C404.46 562.894 404.868 563.614 405.598 564.172C406.35 564.731 407.327 565.01 408.53 565.01C409.647 565.01 410.528 564.763 411.173 564.269C411.817 563.775 412.139 563.152 412.139 562.4C412.139 561.627 411.796 561.057 411.108 560.692C410.421 560.305 409.357 559.93 407.918 559.564C406.608 559.221 405.534 558.877 404.696 558.533C403.88 558.168 403.171 557.642 402.569 556.954C401.989 556.245 401.699 555.322 401.699 554.183C401.699 553.281 401.968 552.454 402.505 551.702C403.042 550.95 403.804 550.359 404.793 549.93C405.781 549.478 406.909 549.253 408.176 549.253C410.131 549.253 411.71 549.747 412.913 550.735C414.116 551.723 414.76 553.077 414.846 554.795H411.914C411.849 553.872 411.473 553.13 410.786 552.572C410.12 552.013 409.218 551.734 408.079 551.734C407.027 551.734 406.189 551.96 405.566 552.411C404.943 552.862 404.631 553.453 404.631 554.183C404.631 554.763 404.814 555.246 405.179 555.633C405.566 555.998 406.039 556.299 406.597 556.535C407.177 556.75 407.972 556.997 408.982 557.276C410.249 557.62 411.28 557.964 412.075 558.308C412.87 558.63 413.546 559.124 414.105 559.79C414.685 560.456 414.986 561.326 415.007 562.4C415.007 563.367 414.739 564.237 414.202 565.01C413.665 565.783 412.902 566.396 411.914 566.847C410.947 567.276 409.83 567.491 408.563 567.491ZM433.989 567.491C432.635 567.491 431.422 567.266 430.347 566.814C429.273 566.342 428.425 565.697 427.802 564.881C427.179 564.043 426.835 563.087 426.771 562.013H429.8C429.886 562.894 430.294 563.614 431.024 564.172C431.776 564.731 432.753 565.01 433.956 565.01C435.073 565.01 435.954 564.763 436.599 564.269C437.243 563.775 437.565 563.152 437.565 562.4C437.565 561.627 437.222 561.057 436.534 560.692C435.847 560.305 434.783 559.93 433.344 559.564C432.034 559.221 430.96 558.877 430.122 558.533C429.306 558.168 428.597 557.642 427.995 556.954C427.415 556.245 427.125 555.322 427.125 554.183C427.125 553.281 427.394 552.454 427.931 551.702C428.468 550.95 429.23 550.359 430.219 549.93C431.207 549.478 432.335 549.253 433.602 549.253C435.557 549.253 437.136 549.747 438.339 550.735C439.542 551.723 440.186 553.077 440.272 554.795H437.34C437.275 553.872 436.899 553.13 436.212 552.572C435.546 552.013 434.644 551.734 433.505 551.734C432.453 551.734 431.615 551.96 430.992 552.411C430.369 552.862 430.057 553.453 430.057 554.183C430.057 554.763 430.24 555.246 430.605 555.633C430.992 555.998 431.465 556.299 432.023 556.535C432.603 556.75 433.398 556.997 434.408 557.276C435.675 557.62 436.706 557.964 437.501 558.308C438.296 558.63 438.972 559.124 439.531 559.79C440.111 560.456 440.412 561.326 440.433 562.4C440.433 563.367 440.165 564.237 439.628 565.01C439.091 565.783 438.328 566.396 437.34 566.847C436.373 567.276 435.256 567.491 433.989 567.491ZM448.149 551.96V562.368C448.149 563.227 448.332 563.839 448.697 564.204C449.062 564.548 449.696 564.72 450.598 564.72H452.757V567.201H450.115C448.482 567.201 447.258 566.825 446.442 566.073C445.625 565.321 445.217 564.086 445.217 562.368V551.96H442.929V549.543H445.217V545.096H448.149V549.543H452.757V551.96H448.149ZM464.011 567.491C462.357 567.491 460.854 567.115 459.5 566.363C458.168 565.612 457.116 564.548 456.342 563.173C455.591 561.777 455.215 560.166 455.215 558.34C455.215 556.535 455.601 554.946 456.375 553.571C457.169 552.174 458.244 551.111 459.597 550.381C460.95 549.629 462.465 549.253 464.14 549.253C465.816 549.253 467.33 549.629 468.684 550.381C470.037 551.111 471.101 552.164 471.874 553.539C472.669 554.913 473.066 556.514 473.066 558.34C473.066 560.166 472.658 561.777 471.842 563.173C471.047 564.548 469.962 565.612 468.587 566.363C467.212 567.115 465.687 567.491 464.011 567.491ZM464.011 564.913C465.064 564.913 466.052 564.666 466.976 564.172C467.9 563.678 468.641 562.937 469.199 561.949C469.779 560.961 470.069 559.758 470.069 558.34C470.069 556.922 469.79 555.719 469.232 554.731C468.673 553.743 467.943 553.012 467.04 552.54C466.138 552.046 465.161 551.799 464.108 551.799C463.034 551.799 462.046 552.046 461.144 552.54C460.263 553.012 459.554 553.743 459.017 554.731C458.48 555.719 458.211 556.922 458.211 558.34C458.211 559.779 458.469 560.993 458.985 561.981C459.522 562.969 460.231 563.71 461.111 564.204C461.992 564.677 462.959 564.913 464.011 564.913ZM479.854 552.411C480.369 551.401 481.1 550.617 482.045 550.059C483.012 549.5 484.183 549.221 485.557 549.221V552.25H484.784C481.497 552.25 479.854 554.033 479.854 557.599V567.201H476.922V549.543H479.854V552.411ZM487.847 558.308C487.847 556.503 488.212 554.924 488.942 553.571C489.673 552.196 490.672 551.133 491.939 550.381C493.228 549.629 494.657 549.253 496.225 549.253C497.771 549.253 499.114 549.586 500.253 550.252C501.391 550.918 502.24 551.756 502.798 552.765V549.543H505.763V567.201H502.798V563.914C502.218 564.946 501.348 565.805 500.188 566.492C499.05 567.158 497.718 567.491 496.192 567.491C494.624 567.491 493.206 567.105 491.939 566.331C490.672 565.558 489.673 564.473 488.942 563.077C488.212 561.68 487.847 560.091 487.847 558.308ZM502.798 558.34C502.798 557.008 502.53 555.848 501.993 554.86C501.456 553.872 500.725 553.12 499.801 552.604C498.899 552.067 497.9 551.799 496.805 551.799C495.709 551.799 494.71 552.056 493.808 552.572C492.906 553.087 492.186 553.839 491.649 554.828C491.112 555.816 490.843 556.976 490.843 558.308C490.843 559.661 491.112 560.842 491.649 561.852C492.186 562.84 492.906 563.603 493.808 564.14C494.71 564.656 495.709 564.913 496.805 564.913C497.9 564.913 498.899 564.656 499.801 564.14C500.725 563.603 501.456 562.84 501.993 561.852C502.53 560.842 502.798 559.672 502.798 558.34ZM518 549.253C519.526 549.253 520.858 549.586 521.996 550.252C523.156 550.918 524.015 551.756 524.574 552.765V549.543H527.538V567.588C527.538 569.199 527.195 570.628 526.507 571.874C525.82 573.141 524.832 574.129 523.543 574.838C522.275 575.547 520.793 575.901 519.096 575.901C516.776 575.901 514.843 575.354 513.296 574.258C511.749 573.162 510.836 571.669 510.557 569.779H513.457C513.779 570.853 514.445 571.712 515.455 572.357C516.464 573.023 517.678 573.356 519.096 573.356C520.707 573.356 522.018 572.851 523.027 571.841C524.058 570.832 524.574 569.414 524.574 567.588V563.882C523.994 564.913 523.135 565.773 521.996 566.46C520.858 567.147 519.526 567.491 518 567.491C516.432 567.491 515.004 567.105 513.715 566.331C512.447 565.558 511.448 564.473 510.718 563.077C509.988 561.68 509.622 560.091 509.622 558.308C509.622 556.503 509.988 554.924 510.718 553.571C511.448 552.196 512.447 551.133 513.715 550.381C515.004 549.629 516.432 549.253 518 549.253ZM524.574 558.34C524.574 557.008 524.305 555.848 523.768 554.86C523.231 553.872 522.501 553.12 521.577 552.604C520.675 552.067 519.676 551.799 518.58 551.799C517.485 551.799 516.486 552.056 515.584 552.572C514.681 553.087 513.962 553.839 513.425 554.828C512.888 555.816 512.619 556.976 512.619 558.308C512.619 559.661 512.888 560.842 513.425 561.852C513.962 562.84 514.681 563.603 515.584 564.14C516.486 564.656 517.485 564.913 518.58 564.913C519.676 564.913 520.675 564.656 521.577 564.14C522.501 563.603 523.231 562.84 523.768 561.852C524.305 560.842 524.574 559.672 524.574 558.34ZM548.605 557.695C548.605 558.254 548.573 558.845 548.509 559.468H534.395C534.502 561.208 535.093 562.572 536.167 563.56C537.263 564.527 538.584 565.01 540.131 565.01C541.398 565.01 542.451 564.72 543.288 564.14C544.148 563.538 544.749 562.744 545.093 561.755H548.251C547.778 563.453 546.833 564.838 545.415 565.912C543.997 566.965 542.236 567.491 540.131 567.491C538.455 567.491 536.951 567.115 535.619 566.363C534.309 565.612 533.278 564.548 532.526 563.173C531.774 561.777 531.398 560.166 531.398 558.34C531.398 556.514 531.763 554.913 532.494 553.539C533.224 552.164 534.245 551.111 535.555 550.381C536.887 549.629 538.412 549.253 540.131 549.253C541.806 549.253 543.288 549.618 544.577 550.349C545.866 551.079 546.854 552.089 547.542 553.377C548.251 554.645 548.605 556.084 548.605 557.695ZM545.576 557.083C545.576 555.966 545.329 555.01 544.835 554.215C544.341 553.399 543.664 552.787 542.805 552.379C541.967 551.949 541.033 551.734 540.002 551.734C538.519 551.734 537.252 552.207 536.199 553.152C535.168 554.097 534.578 555.408 534.427 557.083H545.576ZM559.971 558.308C559.971 556.503 560.336 554.924 561.067 553.571C561.797 552.196 562.796 551.133 564.063 550.381C565.352 549.629 566.791 549.253 568.381 549.253C569.756 549.253 571.034 549.575 572.216 550.22C573.397 550.843 574.299 551.67 574.922 552.701V543.356H577.887V567.201H574.922V563.882C574.342 564.935 573.483 565.805 572.345 566.492C571.206 567.158 569.874 567.491 568.349 567.491C566.781 567.491 565.352 567.105 564.063 566.331C562.796 565.558 561.797 564.473 561.067 563.077C560.336 561.68 559.971 560.091 559.971 558.308ZM574.922 558.34C574.922 557.008 574.654 555.848 574.117 554.86C573.58 553.872 572.849 553.12 571.926 552.604C571.023 552.067 570.025 551.799 568.929 551.799C567.833 551.799 566.834 552.056 565.932 552.572C565.03 553.087 564.31 553.839 563.773 554.828C563.236 555.816 562.968 556.976 562.968 558.308C562.968 559.661 563.236 560.842 563.773 561.852C564.31 562.84 565.03 563.603 565.932 564.14C566.834 564.656 567.833 564.913 568.929 564.913C570.025 564.913 571.023 564.656 571.926 564.14C572.849 563.603 573.58 562.84 574.117 561.852C574.654 560.842 574.922 559.672 574.922 558.34ZM585.775 552.411C586.29 551.401 587.021 550.617 587.966 550.059C588.932 549.5 590.103 549.221 591.478 549.221V552.25H590.705C587.418 552.25 585.775 554.033 585.775 557.599V567.201H582.842V549.543H585.775V552.411ZM596.377 546.675C595.819 546.675 595.346 546.482 594.96 546.095C594.573 545.708 594.38 545.236 594.38 544.677C594.38 544.119 594.573 543.646 594.96 543.259C595.346 542.873 595.819 542.679 596.377 542.679C596.914 542.679 597.366 542.873 597.731 543.259C598.117 543.646 598.311 544.119 598.311 544.677C598.311 545.236 598.117 545.708 597.731 546.095C597.366 546.482 596.914 546.675 596.377 546.675ZM597.795 549.543V567.201H594.863V549.543H597.795ZM609.366 564.494L614.844 549.543H617.97L611.042 567.201H607.626L600.698 549.543H603.856L609.366 564.494ZM636.967 557.695C636.967 558.254 636.935 558.845 636.87 559.468H622.757C622.864 561.208 623.455 562.572 624.529 563.56C625.624 564.527 626.946 565.01 628.492 565.01C629.76 565.01 630.812 564.72 631.65 564.14C632.509 563.538 633.111 562.744 633.455 561.755H636.612C636.14 563.453 635.195 564.838 633.777 565.912C632.359 566.965 630.597 567.491 628.492 567.491C626.817 567.491 625.313 567.115 623.981 566.363C622.671 565.612 621.639 564.548 620.888 563.173C620.136 561.777 619.76 560.166 619.76 558.34C619.76 556.514 620.125 554.913 620.855 553.539C621.586 552.164 622.606 551.111 623.917 550.381C625.248 549.629 626.774 549.253 628.492 549.253C630.168 549.253 631.65 549.618 632.939 550.349C634.228 551.079 635.216 552.089 635.904 553.377C636.612 554.645 636.967 556.084 636.967 557.695ZM633.938 557.083C633.938 555.966 633.691 555.01 633.197 554.215C632.703 553.399 632.026 552.787 631.167 552.379C630.329 551.949 629.394 551.734 628.363 551.734C626.881 551.734 625.614 552.207 624.561 553.152C623.53 554.097 622.939 555.408 622.789 557.083H633.938ZM643.77 552.411C644.285 551.401 645.016 550.617 645.961 550.059C646.928 549.5 648.098 549.221 649.473 549.221V552.25H648.7C645.413 552.25 643.77 554.033 643.77 557.599V567.201H640.837V549.543H643.77V552.411Z" fill="white"/>
<path d="M163.187 607.796C163.55 608.182 163.745 608.696 163.729 609.225C163.713 609.755 163.487 610.256 163.102 610.62L141.98 630.527C141.549 630.933 140.977 631.154 140.385 631.143C139.794 631.132 139.23 630.89 138.815 630.469L131.677 623.224C131.488 623.038 131.337 622.816 131.235 622.572C131.132 622.328 131.079 622.065 131.079 621.8C131.079 621.535 131.131 621.273 131.234 621.028C131.336 620.784 131.486 620.562 131.674 620.376C131.863 620.19 132.087 620.043 132.333 619.945C132.579 619.846 132.842 619.797 133.107 619.801C133.372 619.805 133.633 619.862 133.876 619.968C134.119 620.074 134.338 620.227 134.521 620.419L140.472 626.457L160.364 607.711C160.749 607.348 161.264 607.153 161.793 607.169C162.322 607.185 162.824 607.41 163.187 607.796Z" fill="white"/>
<path d="M208 629.819L198.752 619.572V629.819H195.82V607.36H198.752V617.768L208.032 607.36H211.738L201.555 618.606L211.834 629.819H208ZM231.221 620.314C231.221 620.872 231.189 621.463 231.124 622.086H217.01C217.118 623.826 217.709 625.19 218.783 626.178C219.878 627.145 221.199 627.628 222.746 627.628C224.014 627.628 225.066 627.338 225.904 626.758C226.763 626.157 227.365 625.362 227.709 624.374H230.866C230.394 626.071 229.449 627.456 228.031 628.53C226.613 629.583 224.851 630.109 222.746 630.109C221.071 630.109 219.567 629.733 218.235 628.982C216.925 628.23 215.893 627.166 215.142 625.791C214.39 624.395 214.014 622.784 214.014 620.958C214.014 619.132 214.379 617.532 215.109 616.157C215.84 614.782 216.86 613.729 218.171 612.999C219.502 612.247 221.028 611.871 222.746 611.871C224.422 611.871 225.904 612.236 227.193 612.967C228.482 613.697 229.47 614.707 230.157 615.996C230.866 617.263 231.221 618.702 231.221 620.314ZM228.192 619.701C228.192 618.584 227.945 617.628 227.451 616.833C226.957 616.017 226.28 615.405 225.421 614.997C224.583 614.567 223.648 614.352 222.617 614.352C221.135 614.352 219.868 614.825 218.815 615.77C217.784 616.715 217.193 618.026 217.043 619.701H228.192ZM251.203 620.314C251.203 620.872 251.171 621.463 251.106 622.086H236.993C237.1 623.826 237.691 625.19 238.765 626.178C239.86 627.145 241.182 627.628 242.728 627.628C243.996 627.628 245.048 627.338 245.886 626.758C246.745 626.157 247.347 625.362 247.691 624.374H250.848C250.376 626.071 249.431 627.456 248.013 628.53C246.595 629.583 244.833 630.109 242.728 630.109C241.053 630.109 239.549 629.733 238.217 628.982C236.907 628.23 235.875 627.166 235.124 625.791C234.372 624.395 233.996 622.784 233.996 620.958C233.996 619.132 234.361 617.532 235.091 616.157C235.822 614.782 236.842 613.729 238.153 612.999C239.484 612.247 241.01 611.871 242.728 611.871C244.404 611.871 245.886 612.236 247.175 612.967C248.464 613.697 249.452 614.707 250.14 615.996C250.848 617.263 251.203 618.702 251.203 620.314ZM248.174 619.701C248.174 618.584 247.927 617.628 247.433 616.833C246.939 616.017 246.262 615.405 245.403 614.997C244.565 614.567 243.63 614.352 242.599 614.352C241.117 614.352 239.85 614.825 238.797 615.77C237.766 616.715 237.175 618.026 237.025 619.701H248.174ZM258.006 615.416C258.586 614.406 259.445 613.568 260.584 612.902C261.744 612.215 263.086 611.871 264.611 611.871C266.18 611.871 267.597 612.247 268.865 612.999C270.154 613.751 271.163 614.814 271.894 616.189C272.624 617.542 272.989 619.121 272.989 620.926C272.989 622.709 272.624 624.298 271.894 625.695C271.163 627.091 270.154 628.176 268.865 628.949C267.597 629.723 266.18 630.109 264.611 630.109C263.108 630.109 261.776 629.776 260.616 629.11C259.477 628.423 258.607 627.574 258.006 626.565V638.197H255.073V612.161H258.006V615.416ZM269.993 620.926C269.993 619.594 269.724 618.434 269.187 617.446C268.65 616.458 267.92 615.706 266.996 615.19C266.094 614.675 265.095 614.417 263.999 614.417C262.925 614.417 261.926 614.685 261.002 615.222C260.1 615.738 259.37 616.5 258.811 617.51C258.274 618.498 258.006 619.648 258.006 620.958C258.006 622.29 258.274 623.461 258.811 624.47C259.37 625.458 260.1 626.221 261.002 626.758C261.926 627.274 262.925 627.531 263.999 627.531C265.095 627.531 266.094 627.274 266.996 626.758C267.92 626.221 268.65 625.458 269.187 624.47C269.724 623.461 269.993 622.279 269.993 620.926ZM283.1 630.109C281.747 630.109 280.533 629.884 279.459 629.433C278.385 628.96 277.537 628.316 276.914 627.499C276.291 626.661 275.947 625.706 275.882 624.631H278.911C278.997 625.512 279.406 626.232 280.136 626.79C280.888 627.349 281.865 627.628 283.068 627.628C284.185 627.628 285.066 627.381 285.711 626.887C286.355 626.393 286.677 625.77 286.677 625.018C286.677 624.245 286.334 623.675 285.646 623.31C284.959 622.924 283.895 622.548 282.456 622.182C281.146 621.839 280.071 621.495 279.234 621.151C278.417 620.786 277.708 620.26 277.107 619.572C276.527 618.864 276.237 617.94 276.237 616.801C276.237 615.899 276.505 615.072 277.043 614.32C277.58 613.568 278.342 612.977 279.33 612.548C280.319 612.097 281.446 611.871 282.714 611.871C284.669 611.871 286.248 612.365 287.451 613.353C288.654 614.342 289.298 615.695 289.384 617.413H286.452C286.387 616.49 286.011 615.749 285.324 615.19C284.658 614.632 283.756 614.352 282.617 614.352C281.564 614.352 280.727 614.578 280.104 615.029C279.481 615.48 279.169 616.071 279.169 616.801C279.169 617.381 279.352 617.865 279.717 618.251C280.104 618.616 280.576 618.917 281.135 619.154C281.715 619.368 282.51 619.615 283.519 619.895C284.787 620.238 285.818 620.582 286.613 620.926C287.408 621.248 288.084 621.742 288.643 622.408C289.223 623.074 289.524 623.944 289.545 625.018C289.545 625.985 289.277 626.855 288.739 627.628C288.202 628.402 287.44 629.014 286.452 629.465C285.485 629.895 284.368 630.109 283.1 630.109ZM305.852 614.578V624.986C305.852 625.845 306.035 626.457 306.4 626.823C306.765 627.166 307.399 627.338 308.301 627.338H310.46V629.819H307.818C306.185 629.819 304.96 629.443 304.144 628.692C303.328 627.94 302.92 626.704 302.92 624.986V614.578H300.632V612.161H302.92V607.714H305.852V612.161H310.46V614.578H305.852ZM316.945 615.029C317.461 614.019 318.191 613.235 319.136 612.677C320.103 612.118 321.274 611.839 322.648 611.839V614.868H321.875C318.588 614.868 316.945 616.651 316.945 620.217V629.819H314.013V612.161H316.945V615.029ZM324.938 620.926C324.938 619.121 325.303 617.542 326.033 616.189C326.764 614.814 327.763 613.751 329.03 612.999C330.319 612.247 331.748 611.871 333.316 611.871C334.863 611.871 336.205 612.204 337.344 612.87C338.482 613.536 339.331 614.374 339.889 615.383V612.161H342.854V629.819H339.889V626.533C339.309 627.564 338.439 628.423 337.279 629.11C336.141 629.776 334.809 630.109 333.284 630.109C331.715 630.109 330.298 629.723 329.03 628.949C327.763 628.176 326.764 627.091 326.033 625.695C325.303 624.298 324.938 622.709 324.938 620.926ZM339.889 620.958C339.889 619.626 339.621 618.466 339.084 617.478C338.547 616.49 337.816 615.738 336.893 615.222C335.99 614.685 334.991 614.417 333.896 614.417C332.8 614.417 331.801 614.675 330.899 615.19C329.997 615.706 329.277 616.458 328.74 617.446C328.203 618.434 327.935 619.594 327.935 620.926C327.935 622.279 328.203 623.461 328.74 624.47C329.277 625.458 329.997 626.221 330.899 626.758C331.801 627.274 332.8 627.531 333.896 627.531C334.991 627.531 335.99 627.274 336.893 626.758C337.816 626.221 338.547 625.458 339.084 624.47C339.621 623.461 339.889 622.29 339.889 620.958ZM346.714 620.958C346.714 619.132 347.079 617.542 347.809 616.189C348.54 614.814 349.549 613.751 350.838 612.999C352.148 612.247 353.641 611.871 355.317 611.871C357.487 611.871 359.27 612.397 360.666 613.45C362.084 614.503 363.018 615.963 363.47 617.832H360.312C360.011 616.758 359.42 615.91 358.539 615.287C357.68 614.664 356.606 614.352 355.317 614.352C353.641 614.352 352.288 614.932 351.257 616.092C350.226 617.231 349.71 618.853 349.71 620.958C349.71 623.085 350.226 624.728 351.257 625.888C352.288 627.048 353.641 627.628 355.317 627.628C356.606 627.628 357.68 627.327 358.539 626.726C359.399 626.124 359.989 625.265 360.312 624.148H363.47C362.997 625.953 362.052 627.403 360.634 628.498C359.216 629.572 357.444 630.109 355.317 630.109C353.641 630.109 352.148 629.733 350.838 628.982C349.549 628.23 348.54 627.166 347.809 625.791C347.079 624.417 346.714 622.805 346.714 620.958ZM377.242 629.819L370.314 622.021V629.819H367.382V605.974H370.314V619.991L377.113 612.161H381.206L372.892 620.958L381.238 629.819H377.242ZM400.258 630.109C398.604 630.109 397.1 629.733 395.746 628.982C394.415 628.23 393.362 627.166 392.589 625.791C391.837 624.395 391.461 622.784 391.461 620.958C391.461 619.154 391.847 617.564 392.621 616.189C393.416 614.793 394.49 613.729 395.843 612.999C397.196 612.247 398.711 611.871 400.387 611.871C402.062 611.871 403.577 612.247 404.93 612.999C406.283 613.729 407.347 614.782 408.12 616.157C408.915 617.532 409.312 619.132 409.312 620.958C409.312 622.784 408.904 624.395 408.088 625.791C407.293 627.166 406.208 628.23 404.833 628.982C403.458 629.733 401.933 630.109 400.258 630.109ZM400.258 627.531C401.31 627.531 402.298 627.284 403.222 626.79C404.146 626.296 404.887 625.555 405.446 624.567C406.026 623.579 406.316 622.376 406.316 620.958C406.316 619.54 406.036 618.337 405.478 617.349C404.919 616.361 404.189 615.63 403.287 615.158C402.384 614.664 401.407 614.417 400.354 614.417C399.28 614.417 398.292 614.664 397.39 615.158C396.509 615.63 395.8 616.361 395.263 617.349C394.726 618.337 394.458 619.54 394.458 620.958C394.458 622.397 394.715 623.611 395.231 624.599C395.768 625.587 396.477 626.329 397.358 626.823C398.238 627.295 399.205 627.531 400.258 627.531ZM420.354 614.578H416.648V629.819H413.716V614.578H411.428V612.161H413.716V610.904C413.716 608.928 414.22 607.489 415.23 606.587C416.261 605.663 417.905 605.201 420.16 605.201V607.65C418.871 607.65 417.958 607.908 417.421 608.423C416.906 608.917 416.648 609.744 416.648 610.904V612.161H420.354V614.578ZM431.268 620.958C431.268 619.132 431.633 617.542 432.363 616.189C433.094 614.814 434.103 613.751 435.392 612.999C436.703 612.247 438.196 611.871 439.871 611.871C442.041 611.871 443.824 612.397 445.22 613.45C446.638 614.503 447.572 615.963 448.024 617.832H444.866C444.565 616.758 443.974 615.91 443.093 615.287C442.234 614.664 441.16 614.352 439.871 614.352C438.196 614.352 436.842 614.932 435.811 616.092C434.78 617.231 434.264 618.853 434.264 620.958C434.264 623.085 434.78 624.728 435.811 625.888C436.842 627.048 438.196 627.628 439.871 627.628C441.16 627.628 442.234 627.327 443.093 626.726C443.953 626.124 444.543 625.265 444.866 624.148H448.024C447.551 625.953 446.606 627.403 445.188 628.498C443.77 629.572 441.998 630.109 439.871 630.109C438.196 630.109 436.703 629.733 435.392 628.982C434.103 628.23 433.094 627.166 432.363 625.791C431.633 624.417 431.268 622.805 431.268 620.958ZM460.701 611.839C462.033 611.839 463.236 612.129 464.31 612.709C465.384 613.267 466.222 614.116 466.823 615.255C467.446 616.393 467.758 617.779 467.758 619.411V629.819H464.858V619.83C464.858 618.069 464.417 616.726 463.536 615.802C462.656 614.857 461.453 614.384 459.927 614.384C458.381 614.384 457.146 614.868 456.222 615.835C455.32 616.801 454.868 618.208 454.868 620.056V629.819H451.936V605.974H454.868V614.675C455.448 613.772 456.243 613.074 457.253 612.58C458.284 612.086 459.433 611.839 460.701 611.839ZM471.452 620.926C471.452 619.121 471.817 617.542 472.548 616.189C473.278 614.814 474.277 613.751 475.544 612.999C476.833 612.247 478.262 611.871 479.83 611.871C481.377 611.871 482.719 612.204 483.858 612.87C484.996 613.536 485.845 614.374 486.403 615.383V612.161H489.368V629.819H486.403V626.533C485.823 627.564 484.953 628.423 483.793 629.11C482.655 629.776 481.323 630.109 479.798 630.109C478.23 630.109 476.812 629.723 475.544 628.949C474.277 628.176 473.278 627.091 472.548 625.695C471.817 624.298 471.452 622.709 471.452 620.926ZM486.403 620.958C486.403 619.626 486.135 618.466 485.598 617.478C485.061 616.49 484.33 615.738 483.407 615.222C482.504 614.685 481.506 614.417 480.41 614.417C479.314 614.417 478.315 614.675 477.413 615.19C476.511 615.706 475.791 616.458 475.254 617.446C474.717 618.434 474.449 619.594 474.449 620.926C474.449 622.279 474.717 623.461 475.254 624.47C475.791 625.458 476.511 626.221 477.413 626.758C478.315 627.274 479.314 627.531 480.41 627.531C481.506 627.531 482.504 627.274 483.407 626.758C484.33 626.221 485.061 625.458 485.598 624.47C486.135 623.461 486.403 622.29 486.403 620.958ZM502.927 611.839C505.075 611.839 506.815 612.494 508.147 613.804C509.479 615.093 510.145 616.962 510.145 619.411V629.819H507.245V619.83C507.245 618.069 506.804 616.726 505.924 615.802C505.043 614.857 503.84 614.384 502.315 614.384C500.768 614.384 499.533 614.868 498.609 615.835C497.707 616.801 497.256 618.208 497.256 620.056V629.819H494.323V612.161H497.256V614.675C497.836 613.772 498.62 613.074 499.608 612.58C500.618 612.086 501.724 611.839 502.927 611.839ZM522.217 611.871C523.742 611.871 525.074 612.204 526.213 612.87C527.373 613.536 528.232 614.374 528.791 615.383V612.161H531.755V630.206C531.755 631.817 531.411 633.246 530.724 634.492C530.037 635.759 529.048 636.747 527.759 637.456C526.492 638.165 525.01 638.52 523.313 638.52C520.993 638.52 519.059 637.972 517.513 636.876C515.966 635.781 515.053 634.288 514.774 632.397H517.674C517.996 633.471 518.662 634.331 519.671 634.975C520.681 635.641 521.895 635.974 523.313 635.974C524.924 635.974 526.234 635.469 527.244 634.459C528.275 633.45 528.791 632.032 528.791 630.206V626.5C528.211 627.531 527.351 628.391 526.213 629.078C525.074 629.766 523.742 630.109 522.217 630.109C520.649 630.109 519.22 629.723 517.931 628.949C516.664 628.176 515.665 627.091 514.935 625.695C514.204 624.298 513.839 622.709 513.839 620.926C513.839 619.121 514.204 617.542 514.935 616.189C515.665 614.814 516.664 613.751 517.931 612.999C519.22 612.247 520.649 611.871 522.217 611.871ZM528.791 620.958C528.791 619.626 528.522 618.466 527.985 617.478C527.448 616.49 526.718 615.738 525.794 615.222C524.892 614.685 523.893 614.417 522.797 614.417C521.702 614.417 520.703 614.675 519.8 615.19C518.898 615.706 518.178 616.458 517.641 617.446C517.104 618.434 516.836 619.594 516.836 620.926C516.836 622.279 517.104 623.461 517.641 624.47C518.178 625.458 518.898 626.221 519.8 626.758C520.703 627.274 521.702 627.531 522.797 627.531C523.893 627.531 524.892 627.274 525.794 626.758C526.718 626.221 527.448 625.458 527.985 624.47C528.522 623.461 528.791 622.29 528.791 620.958ZM552.822 620.314C552.822 620.872 552.79 621.463 552.725 622.086H538.612C538.719 623.826 539.31 625.19 540.384 626.178C541.479 627.145 542.801 627.628 544.347 627.628C545.615 627.628 546.667 627.338 547.505 626.758C548.364 626.157 548.966 625.362 549.31 624.374H552.467C551.995 626.071 551.05 627.456 549.632 628.53C548.214 629.583 546.453 630.109 544.347 630.109C542.672 630.109 541.168 629.733 539.836 628.982C538.526 628.23 537.495 627.166 536.743 625.791C535.991 624.395 535.615 622.784 535.615 620.958C535.615 619.132 535.98 617.532 536.71 616.157C537.441 614.782 538.461 613.729 539.772 612.999C541.103 612.247 542.629 611.871 544.347 611.871C546.023 611.871 547.505 612.236 548.794 612.967C550.083 613.697 551.071 614.707 551.759 615.996C552.467 617.263 552.822 618.702 552.822 620.314ZM549.793 619.701C549.793 618.584 549.546 617.628 549.052 616.833C548.558 616.017 547.881 615.405 547.022 614.997C546.184 614.567 545.25 614.352 544.218 614.352C542.736 614.352 541.469 614.825 540.416 615.77C539.385 616.715 538.794 618.026 538.644 619.701H549.793ZM562.944 630.109C561.59 630.109 560.377 629.884 559.303 629.433C558.228 628.96 557.38 628.316 556.757 627.499C556.134 626.661 555.79 625.706 555.726 624.631H558.755C558.841 625.512 559.249 626.232 559.979 626.79C560.731 627.349 561.709 627.628 562.912 627.628C564.029 627.628 564.909 627.381 565.554 626.887C566.198 626.393 566.521 625.77 566.521 625.018C566.521 624.245 566.177 623.675 565.489 623.31C564.802 622.924 563.739 622.548 562.299 622.182C560.989 621.839 559.915 621.495 559.077 621.151C558.261 620.786 557.552 620.26 556.95 619.572C556.37 618.864 556.08 617.94 556.08 616.801C556.08 615.899 556.349 615.072 556.886 614.32C557.423 613.568 558.185 612.977 559.174 612.548C560.162 612.097 561.29 611.871 562.557 611.871C564.512 611.871 566.091 612.365 567.294 613.353C568.497 614.342 569.141 615.695 569.227 617.413H566.295C566.231 616.49 565.855 615.749 565.167 615.19C564.501 614.632 563.599 614.352 562.46 614.352C561.408 614.352 560.57 614.578 559.947 615.029C559.324 615.48 559.013 616.071 559.013 616.801C559.013 617.381 559.195 617.865 559.56 618.251C559.947 618.616 560.42 618.917 560.978 619.154C561.558 619.368 562.353 619.615 563.363 619.895C564.63 620.238 565.661 620.582 566.456 620.926C567.251 621.248 567.928 621.742 568.486 622.408C569.066 623.074 569.367 623.944 569.388 625.018C569.388 625.985 569.12 626.855 568.583 627.628C568.046 628.402 567.283 629.014 566.295 629.465C565.328 629.895 564.211 630.109 562.944 630.109Z" fill="white"/>
<path d="M1224.6 745.8C1220.94 745.8 1217.43 747.254 1214.84 749.842C1212.25 752.43 1210.8 755.94 1210.8 759.6V796.4C1210.8 799.39 1211.75 802.15 1213.36 804.413L1238.16 779.996C1239.45 778.725 1241.19 778.012 1243 778.012C1244.81 778.012 1246.55 778.725 1247.84 779.996L1272.63 804.413C1274.31 802.078 1275.21 799.274 1275.2 796.4V759.6C1275.2 755.94 1273.75 752.43 1271.16 749.842C1268.57 747.254 1265.06 745.8 1261.4 745.8H1224.6ZM1224.6 810.2C1221.74 810.205 1218.95 809.317 1216.62 807.661L1241.39 783.281C1241.82 782.856 1242.4 782.619 1243 782.619C1243.6 782.619 1244.18 782.856 1244.61 783.281L1269.38 807.661C1267.05 809.317 1264.26 810.205 1261.4 810.2H1224.6ZM1254.5 772.25C1252.97 772.25 1251.51 771.644 1250.43 770.566C1249.36 769.487 1248.75 768.025 1248.75 766.5C1248.75 764.975 1249.36 763.512 1250.43 762.434C1251.51 761.356 1252.97 760.75 1254.5 760.75C1256.02 760.75 1257.49 761.356 1258.57 762.434C1259.64 763.512 1260.25 764.975 1260.25 766.5C1260.25 768.025 1259.64 769.487 1258.57 770.566C1257.49 771.644 1256.02 772.25 1254.5 772.25Z" fill="white"/>
</g>
<defs>
<clipPath id="clip0_117_1037">
<rect width="1330" height="888" rx="24" fill="white"/>
</clipPath>
</defs>
</svg>
